<svg xmlns="http://www.w3.org/2000/svg" width="623.919" height="325.793" viewBox="0 0 623.919 325.793"><defs><style>.a,.ag,.ah,.ak,.al,.ao,.ar,.at,.aw,.b,.c,.l,.q,.r,.t{fill:none;}.a{stroke:#d1f8f4;}.a,.al,.ao,.ar,.at,.av,.aw,.b,.c,.d,.e,.h,.l,.m,.q,.r,.t,.u,.v{stroke-linecap:round;}.a,.ai,.aj,.ak,.al,.an,.ao,.ap,.ar,.at,.av,.aw,.b,.c,.d,.e,.h,.j,.l,.m,.n,.t,.u,.v{stroke-miterlimit:10;}.b{stroke:#56b6e6;}.ag,.c{stroke:#2b71d9;}.d,.m,.o{fill:#59221d;}.d,.e,.j,.l,.n,.u{stroke:#f04023;}.ai,.aj,.ak,.al,.an,.ap,.ar,.at,.av,.aw,.d,.e,.g,.h,.j,.l,.m,.n,.q,.r,.t,.u,.v{stroke-width:0.75px;}.aj,.an,.ap,.av,.e,.h,.j,.s{fill:#fff;}.f{fill:#f27032;}.aa,.ai,.g{fill:#a74602;}.ai,.ak,.al,.an,.g,.h{stroke:#e3894d;}.i{fill:#ececec;}.k,.n,.v{fill:#f05922;}.aj,.m,.t{stroke:#59221d;}.p{fill:#e0ecfa;}.ao,.q{stroke:#fff;}.ag,.q,.r{stroke-linejoin:round;}.r,.v{stroke:#da3732;}.u{fill:#f04023;}.w{fill:#d31820;}.x{fill:#f4fbff;}.y{fill:#ba0d14;}.z{fill:#e3894d;}.ab{fill:#38ac49;}.ac{fill:#e98824;}.ad{fill:#edc91a;}.ae{fill:#fc3;}.af{fill:#2b71d9;}.am{fill:#ee1c25;}.ap,.at{stroke:#a74602;}.aq{fill:#56b6e6;}.ar{stroke:#f05922;}.as{fill:#bf6b30;}.au{fill:#5a2618;}.av,.aw{stroke:#af5435;}.ax{fill:#ffbd3a;}.ay{fill:#e2e2e2;}.az{fill:#e7f5fb;}.ba{fill:#cfcfcf;}.bb{fill:#ca7048;}.bc{fill:#bd6248;}.bd{fill:#ffc200;}</style></defs><g transform="translate(-586.347 -185.581)"><g transform="translate(526.305 -36.005)"><g transform="translate(87.305 231.586)"><g transform="translate(0 65.459)"><g transform="translate(-26.36 -6.866)"><g transform="translate(0 77.027)"><path class="a" d="M663.637,961.69c-24.849.72-63.519,6.389-86.295,16.431l-32.809,14.467a186.58,186.58,0,0,1-75.285,15.86H338.088a189.311,189.311,0,0,0-48.281,6.259h.006a189.3,189.3,0,0,1-48.277,6.259H129.357a92.331,92.331,0,0,1-78.274-43.352L41.12,961.69Z" transform="translate(-41.12 -961.69)"/><path class="b" d="M548.11,1016.057a3.748,3.748,0,0,0,5.288,0l.026-.024a3.747,3.747,0,0,1,5.288,0" transform="translate(-467.474 -998.342)"/><path class="b" d="M351.34,1045.394l.026.026a3.749,3.749,0,0,0,5.288,0l.076-.077a3.748,3.748,0,0,1,5.288,0l.076.077a3.749,3.749,0,0,0,5.288,0l.051-.053a3.748,3.748,0,0,1,5.288,0l.051.052a3.748,3.748,0,0,0,5.289,0l.024-.026a3.748,3.748,0,0,1,5.288,0" transform="translate(-302.768 -1022.876)"/><path class="b" d="M2608,1082.054h0a3.747,3.747,0,0,0,5.287,0h0a3.749,3.749,0,0,1,5.29,0l.024.026a3.747,3.747,0,0,0,5.288,0l.077-.076a3.748,3.748,0,0,1,5.288,0l.076.076a3.747,3.747,0,0,0,5.287,0l.051-.052a3.749,3.749,0,0,1,5.288,0l.052.052a3.747,3.747,0,0,0,5.287,0l.024-.026a3.749,3.749,0,0,1,5.29,0" transform="translate(-2167.928 -1065.445)"/><path class="b" d="M2672.87,1111.674l.025.026a3.748,3.748,0,0,0,5.287,0l.077-.077a3.747,3.747,0,0,1,5.288,0l.076.077a3.748,3.748,0,0,0,5.288,0l.051-.051a3.748,3.748,0,0,1,5.288,0l.052.051a3.749,3.749,0,0,0,5.288,0l.024-.026" transform="translate(-2222.226 -1090.238)"/></g><g transform="translate(0)"><line class="c" y2="45.926" transform="translate(201.108 15.432)"/><line class="c" y2="39.429" transform="translate(194.593 21.929)"/><line class="c" y2="34.881" transform="translate(188.078 26.477)"/><line class="c" y2="31.47" transform="translate(181.565 29.888)"/><line class="c" y2="28.708" transform="translate(175.05 32.65)"/><line class="c" y2="26.759" transform="translate(168.535 34.599)"/><line class="c" y2="25.297" transform="translate(162.022 36.06)"/><line class="c" y2="47.413" transform="translate(212.049 13.944)"/><line class="c" y2="41.77" transform="translate(218.562 19.424)"/><line class="c" y2="37.605" transform="translate(225.077 23.589)"/><line class="c" y2="34.154" transform="translate(231.592 27.041)"/><line class="c" y2="31.229" transform="translate(238.106 29.966)"/><line class="c" y2="28.838" transform="translate(244.62 32.356)"/><line class="c" y2="26.8" transform="translate(251.135 34.395)"/><line class="c" y2="25.036" transform="translate(257.66 36.158)"/><line class="c" y2="23.787" transform="translate(264.175 37.408)"/><line class="c" y2="22.4" transform="translate(270.69 38.795)"/><line class="c" y2="21.451" transform="translate(277.215 39.743)"/><line class="c" y2="20.527" transform="translate(283.73 40.667)"/><line class="c" y2="19.956" transform="translate(290.245 41.239)"/><line class="c" y2="19.496" transform="translate(296.769 41.699)"/><line class="c" y2="19.061" transform="translate(303.284 42.134)"/><line class="c" y2="18.978" transform="translate(309.799 42.217)"/><line class="c" y2="23.998" transform="translate(155.507 37.359)"/><line class="c" y2="23.348" transform="translate(148.992 38.009)"/><line class="c" y2="22.861" transform="translate(142.478 38.497)"/><line class="c" y2="22.537" transform="translate(135.963 38.821)"/><line class="c" y2="22.537" transform="translate(129.449 38.821)"/><line class="c" y2="23.348" transform="translate(122.935 38.009)"/><line class="c" y2="24.486" transform="translate(116.42 36.872)"/><line class="c" y2="26.11" transform="translate(109.905 35.247)"/><line class="c" y2="28.221" transform="translate(103.392 33.137)"/><line class="c" y2="30.82" transform="translate(96.877 30.538)"/><line class="c" y2="34.23" transform="translate(90.362 27.127)"/><line class="c" y2="38.291" transform="translate(83.849 23.066)"/><line class="c" y2="34.004" transform="translate(72.683 27.127)"/><line class="c" y2="27.399" transform="translate(66.168 33.732)"/><line class="c" y2="22.146" transform="translate(59.655 38.985)"/><line class="c" y2="17.655" transform="translate(53.14 43.476)"/><line class="c" y2="13.69" transform="translate(46.625 47.441)"/><line class="c" y2="10.216" transform="translate(40.111 50.915)"/><line class="c" y2="7.4" transform="translate(33.597 53.731)"/><line class="c" y2="4.67" transform="translate(27.082 56.461)"/><line class="c" y2="2.868" transform="translate(20.568 58.263)"/><line class="c" y2="52.261" transform="translate(420.298 9.026)"/><line class="c" y2="45.114" transform="translate(426.894 16.173)"/><line class="c" y2="39.592" transform="translate(433.491 21.696)"/><line class="c" y2="35.207" transform="translate(440.087 26.081)"/><line class="c" y2="31.633" transform="translate(446.683 29.655)"/><line class="c" y2="28.871" transform="translate(453.28 32.417)"/><line class="c" y2="26.435" transform="translate(459.876 34.853)"/><line class="c" y2="24.812" transform="translate(466.473 36.476)"/><line class="c" y2="23.674" transform="translate(473.068 37.613)"/><line class="c" y2="22.861" transform="translate(479.664 38.427)"/><line class="c" y2="22.537" transform="translate(486.26 38.751)"/><line class="c" y2="22.537" transform="translate(492.857 38.751)"/><line class="c" y2="23.348" transform="translate(499.453 37.939)"/><line class="c" y2="24.649" transform="translate(506.05 36.639)"/><line class="c" y2="26.273" transform="translate(512.646 35.014)"/><line class="c" y2="28.547" transform="translate(519.243 32.741)"/><line class="c" y2="31.146" transform="translate(525.839 30.142)"/><line class="c" y2="34.556" transform="translate(532.435 26.731)"/><line class="c" y2="38.617" transform="translate(538.872 22.67)"/><line class="c" y2="3.504" transform="translate(596.718 57.784)"/><line class="c" y2="5.793" transform="translate(590.122 55.494)"/><line class="c" y2="8.48" transform="translate(583.525 52.807)"/><line class="c" y2="11.435" transform="translate(576.929 49.853)"/><line class="c" y2="15.082" transform="translate(570.332 46.206)"/><line class="c" y2="19.483" transform="translate(563.736 41.805)"/><line class="c" y2="25.036" transform="translate(557.14 36.251)"/><line class="c" y2="31.608" transform="translate(550.703 29.679)"/><line class="c" y2="54.194" transform="translate(408.44 7.093)"/><line class="c" y2="48.059" transform="translate(401.843 13.229)"/><line class="c" y2="43.134" transform="translate(395.247 18.153)"/><line class="c" y2="39.067" transform="translate(388.65 22.221)"/><line class="c" y2="35.513" transform="translate(382.054 25.775)"/><line class="c" y2="32.316" transform="translate(375.457 28.972)"/><line class="c" y2="29.62" transform="translate(368.861 31.667)"/><line class="c" y2="26.953" transform="translate(362.264 34.335)"/><line class="c" y2="25.121" transform="translate(355.668 36.166)"/><line class="c" y2="23.464" transform="translate(349.072 37.824)"/><line class="c" y2="21.989" transform="translate(342.475 39.298)"/><line class="c" y2="20.85" transform="translate(335.879 40.437)"/><line class="c" y2="20.071" transform="translate(329.282 41.216)"/><line class="c" y2="18.983" transform="translate(322.686 42.305)"/><line class="c" y2="19.049" transform="translate(316.089 42.238)"/><line class="c" y2="68.635" transform="translate(206.404 8.246)"/><line class="c" y2="57.854" transform="translate(78.121 19.027)"/><line class="c" y2="76.786" transform="translate(414.208 0.095)"/><line class="c" y2="57.854" transform="translate(544.106 19.027)"/><path class="c" d="M1307.48,534.53c18.205,25.064,66.022,34.755,105.934,34.755" transform="translate(-1101.119 -527.111)"/><path class="c" d="M520.79,546.522c14.153,11.032,33.976,19.662,55.918,19.662,32.7,0,60.7-9.546,72.23-31.124" transform="translate(-442.625 -527.554)"/><path class="c" d="M41.12,647.693c32.694,0,70.664-25.634,78.147-42.233" transform="translate(-41.12 -586.482)"/><path class="c" d="M2058.212,489c-18.433,25.069-61.8,42.174-102.212,42.174" transform="translate(-1643.96 -489)"/><path class="c" d="M2713.3,508.186c-14.34,11.032-34.4,19.662-56.623,19.662-33.113,0-61.458-17-73.138-38.588" transform="translate(-2169.239 -489.218)"/><path class="c" d="M3458.377,647.695c-35.825,0-70.853-22.726-78.437-42.235" transform="translate(-2835.861 -586.482)"/><line class="c" x1="622.351" transform="translate(0 61.34)"/><path class="c" d="M428.88,865.42a15.152,15.152,0,0,1,14.951,15.344" transform="translate(-365.692 -804.08)"/><path class="c" d="M535.471,865.42a15.152,15.152,0,0,0-14.951,15.344" transform="translate(-442.399 -804.08)"/><path class="c" d="M1216.88,865.42a15.151,15.151,0,0,1,14.951,15.344" transform="translate(-1025.284 -804.08)"/><path class="c" d="M1323.472,865.42a15.152,15.152,0,0,0-14.952,15.344" transform="translate(-1101.99 -804.08)"/><path class="c" d="M3287.25,865.42a15.242,15.242,0,0,1,15.138,15.344" transform="translate(-2758.276 -804.08)"/><path class="c" d="M3395.178,865.42a15.243,15.243,0,0,0-15.138,15.344" transform="translate(-2835.945 -804.08)"/><path class="c" d="M2490.18,865.42a15.243,15.243,0,0,1,15.139,15.344" transform="translate(-2091.092 -804.08)"/><path class="c" d="M2598.108,865.42a15.242,15.242,0,0,0-15.139,15.344" transform="translate(-2168.761 -804.08)"/></g></g><g transform="translate(97.34 71.927)"><g transform="translate(0 0)"><rect class="d" width="258.089" height="4.448" transform="translate(0 125.989)"/><rect class="e" width="232.541" height="125.989"/><rect class="f" width="231.178" height="4.495" transform="translate(0.451 103.921)"/><g transform="translate(21.564 15.936)"><path class="g" d="M4674.787,1419.272c8.641,0,15.648-8.577,15.648-19.159s-7-19.16-15.648-19.16h11.052c8.642,0,15.648,8.578,15.648,19.16s-7,19.159-15.648,19.159Z" transform="translate(-4318.208 -1268.706)"/><ellipse class="h" cx="15.649" cy="19.16" rx="15.649" ry="19.16" transform="translate(340.93 112.246)"/><ellipse class="i" cx="7.949" cy="8.713" rx="7.949" ry="8.713" transform="translate(348.351 126.677)"/><path class="g" d="M4723.714,1419.272c8.643,0,15.648-8.577,15.648-19.159s-7-19.16-15.648-19.16h11.047c8.644,0,15.649,8.578,15.649,19.16s-7,19.159-15.649,19.159Z" transform="translate(-4436.289 -1268.706)"/><path class="e" d="M4668.321,1388.661h-8.431v9.586h11.028v-6.989A2.6,2.6,0,0,0,4668.321,1388.661Z" transform="translate(-4266.583 -1265.518)"/><path class="f" d="M4817.521,1334.361l-2.319-2.861h-32.913l-6.2-7.2a72.492,72.492,0,0,0-42.529-22.763h-1.552v110.429H4473.713v24.323h291.025v-8.068a20.15,20.15,0,1,1,40.29,0v7.7h49.558v-31.784a18.543,18.543,0,0,0-11.353-17.195l-45.169-20.125a2.643,2.643,0,0,1-2.059-1.526l-11.157-24.54a4.585,4.585,0,0,1,4.173-6.491Z" transform="translate(-4495.492 -1301.54)"/><path class="j" d="M4720.01,1301.791a72.508,72.508,0,0,1,42.52,22.762l6.2,7.192h32.913l-3.88-4.5c-14.376-15.873-34.578-25.448-55.745-25.448Z" transform="translate(-4482.283 -1301.436)"/><path class="j" d="M4667.67,1347.358l47.076,20.426a19.372,19.372,0,0,1,11.862,17.968v31.229h34.244v-32.993a19.454,19.454,0,0,0-9.635-16.871l-36.795-19.759Z" transform="translate(-4367.515 -1282.596)"/><path class="e" d="M4709.708,1388.661h-15.213a2.6,2.6,0,0,0-2.6,2.6v6.989h17.811v-9.586Z" transform="translate(-4350.615 -1265.518)"/><path class="e" d="M4705.964,1388.661h-11.6a2.6,2.6,0,0,0-2.6,2.6v6.989h14.2v-9.586Z" transform="translate(-4346.688 -1265.518)"/><rect class="k" width="25.548" height="12.265" rx="1.755" transform="translate(206.597 113.298)"/><line class="l" x1="139.052" transform="translate(202.23 128.578)"/><path class="m" d="M4726.959,1397.193v7.7h40.289v-7.7a20.149,20.149,0,1,0-40.289,0Z" transform="translate(-4457.713 -1270.504)"/><ellipse class="h" cx="15.649" cy="19.16" rx="15.649" ry="19.16" transform="translate(271.776 112.246)"/><ellipse class="i" cx="10.074" cy="12.263" rx="10.074" ry="12.263" transform="translate(277.35 119.053)"/><path class="n" d="M4719.68,1400.019v6.779h4.28v-7.7a20.154,20.154,0,1,1,40.3,0v7.7h10.278v-6.779c0-15.483-12.28-28.033-27.427-28.033S4719.68,1384.536,4719.68,1400.019Z" transform="translate(-4454.715 -1272.413)"/><rect class="o" width="95.806" height="7.619" transform="translate(309.074 132.173)"/><path class="p" d="M4785.973,1357.216h-44.182a4.354,4.354,0,0,1-4.354-4.353v-28.172h26.187a11.687,11.687,0,0,1,10.629,6.831Z" transform="translate(-4491.248 -1291.968)"/><path class="q" d="M4735.951,1323.081h26.943a13.231,13.231,0,0,1,12.037,7.739l11.307,24.787" transform="translate(-4489.412 -1292.633)"/><path class="r" d="M4736.213,1355.1v35.942h16.448c4.187-11.662,17.66-18.258,33.818-18.258v-21.538" transform="translate(-4490.025 -1280.988)"/><path class="s" d="M4713.151,1357.267h45.9l-27.042-32.576h-28.252a4.586,4.586,0,0,0-4.174,6.49l11.163,24.539A2.647,2.647,0,0,0,4713.151,1357.267Z" transform="translate(-4410.238 -1291.968)"/><path class="p" d="M4719.434,1357.267h33.894l-27.077-32.576h-22.644a4.586,4.586,0,0,0-4.175,6.49l8.492,18.679A12.639,12.639,0,0,0,4719.434,1357.267Z" transform="translate(-4404.298 -1291.968)"/><path class="l" d="M4758.661,1357.269H4714.04a3.886,3.886,0,0,1-3.537-2.277l-10.827-23.814a4.586,4.586,0,0,1,4.175-6.491H4731.4" transform="translate(-4409.975 -1291.969)"/><path class="t" d="M4736.671,1348.637l-8.541-3.2h-13.9" transform="translate(-4409.147 -1283.389)"/><path class="f" d="M4698.525,1400.064v-28.032a3.008,3.008,0,0,0-2.975-3.041h-23.041a3.008,3.008,0,0,0-2.976,3.039v28.034a3.007,3.007,0,0,0,2.976,3.04h23.048A3.007,3.007,0,0,0,4698.525,1400.064Z" transform="translate(-4307.821 -1273.65)"/><g transform="translate(364.416 97.524)"><circle class="s" cx="0.868" cy="0.868" r="0.868"/><circle class="s" cx="0.868" cy="0.868" r="0.868" transform="translate(21.871)"/><circle class="s" cx="0.868" cy="0.868" r="0.868" transform="translate(16.403)"/><circle class="s" cx="0.868" cy="0.868" r="0.868" transform="translate(10.934)"/><circle class="s" cx="0.868" cy="0.868" r="0.868" transform="translate(5.468)"/><circle class="s" cx="0.868" cy="0.868" r="0.868" transform="translate(2.733 2.821)"/><circle class="s" cx="0.868" cy="0.868" r="0.868" transform="translate(19.136 2.821)"/><circle class="s" cx="0.868" cy="0.868" r="0.868" transform="translate(13.669 2.821)"/><circle class="s" cx="0.868" cy="0.868" r="0.868" transform="translate(8.202 2.821)"/><circle class="s" cx="0.868" cy="0.868" r="0.868" transform="translate(0 5.643)"/><circle class="s" cx="0.868" cy="0.868" r="0.868" transform="translate(21.871 5.643)"/><circle class="s" cx="0.868" cy="0.868" r="0.868" transform="translate(16.403 5.643)"/><circle class="s" cx="0.868" cy="0.868" r="0.868" transform="translate(10.934 5.643)"/><circle class="s" cx="0.868" cy="0.868" r="0.868" transform="translate(5.468 5.643)"/><circle class="s" cx="0.868" cy="0.868" r="0.868" transform="translate(2.733 8.466)"/><circle class="s" cx="0.868" cy="0.868" r="0.868" transform="translate(19.136 8.466)"/><circle class="s" cx="0.868" cy="0.868" r="0.868" transform="translate(13.669 8.466)"/><circle class="s" cx="0.868" cy="0.868" r="0.868" transform="translate(8.202 8.466)"/><circle class="s" cx="0.868" cy="0.868" r="0.868" transform="translate(0 11.288)"/><circle class="s" cx="0.868" cy="0.868" r="0.868" transform="translate(21.871 11.288)"/><circle class="s" cx="0.868" cy="0.868" r="0.868" transform="translate(16.403 11.288)"/><circle class="s" cx="0.868" cy="0.868" r="0.868" transform="translate(10.934 11.288)"/><circle class="s" cx="0.868" cy="0.868" r="0.868" transform="translate(5.468 11.288)"/><circle class="s" cx="0.868" cy="0.868" r="0.868" transform="translate(2.733 14.111)"/><circle class="s" cx="0.868" cy="0.868" r="0.868" transform="translate(19.136 14.111)"/><circle class="s" cx="0.868" cy="0.868" r="0.868" transform="translate(13.669 14.111)"/><circle class="s" cx="0.868" cy="0.868" r="0.868" transform="translate(8.202 14.111)"/><circle class="s" cx="0.868" cy="0.868" r="0.868" transform="translate(0 16.933)"/><circle class="s" cx="0.868" cy="0.868" r="0.868" transform="translate(21.871 16.933)"/><circle class="s" cx="0.868" cy="0.868" r="0.868" transform="translate(16.403 16.933)"/><circle class="s" cx="0.868" cy="0.868" r="0.868" transform="translate(10.934 16.933)"/><circle class="s" cx="0.868" cy="0.868" r="0.868" transform="translate(5.468 16.933)"/><circle class="s" cx="0.868" cy="0.868" r="0.868" transform="translate(2.733 19.754)"/><circle class="s" cx="0.868" cy="0.868" r="0.868" transform="translate(19.136 19.754)"/><circle class="s" cx="0.868" cy="0.868" r="0.868" transform="translate(13.669 19.754)"/><circle class="s" cx="0.868" cy="0.868" r="0.868" transform="translate(8.202 19.754)"/><circle class="s" cx="0.868" cy="0.868" r="0.868" transform="translate(0 22.578)"/><circle class="s" cx="0.868" cy="0.868" r="0.868" transform="translate(21.871 22.578)"/><circle class="s" cx="0.868" cy="0.868" r="0.868" transform="translate(16.403 22.578)"/><circle class="s" cx="0.868" cy="0.868" r="0.868" transform="translate(10.934 22.578)"/><circle class="s" cx="0.868" cy="0.868" r="0.868" transform="translate(5.468 22.578)"/><circle class="s" cx="0.868" cy="0.868" r="0.868" transform="translate(2.733 25.4)"/><circle class="s" cx="0.868" cy="0.868" r="0.868" transform="translate(19.136 25.4)"/><circle class="s" cx="0.868" cy="0.868" r="0.868" transform="translate(13.669 25.4)"/><circle class="s" cx="0.868" cy="0.868" r="0.868" transform="translate(8.202 25.4)"/><circle class="s" cx="0.868" cy="0.868" r="0.868" transform="translate(0 28.221)"/><circle class="s" cx="0.868" cy="0.868" r="0.868" transform="translate(21.871 28.221)"/><circle class="s" cx="0.868" cy="0.868" r="0.868" transform="translate(16.403 28.221)"/><circle class="s" cx="0.868" cy="0.868" r="0.868" transform="translate(10.934 28.221)"/><circle class="s" cx="0.868" cy="0.868" r="0.868" transform="translate(5.468 28.221)"/></g><rect class="u" width="20.993" height="3.595" transform="translate(243.973 128.578)"/></g><rect class="v" width="25.548" height="125.989" transform="translate(232.541)"/></g><g transform="translate(267.752 50.913)"><g transform="translate(0.001 10.122)"><path class="w" d="M4774.633,1333.449h-17.141a7.944,7.944,0,0,0-7.944,7.944h0v7.858a4.392,4.392,0,0,0,4.392,4.388h27.025V1339.78A6.331,6.331,0,0,0,4774.633,1333.449Z" transform="translate(-4749.547 -1333.446)"/><path class="x" d="M4756.432,1333.45a2.482,2.482,0,0,0,.442,1.2,2.954,2.954,0,0,0,2.435,1.214H4761l2.467,17.779h.854l-2.47-17.828a3.462,3.462,0,0,0,2.835-2.36h-.877a2.768,2.768,0,0,1-2.574,1.555H4759.3a2.091,2.091,0,0,1-1.731-.855,1.584,1.584,0,0,1-.285-.7Z" transform="translate(-4742.997 -1333.447)"/></g><g transform="translate(0 10.116)"><path class="y" d="M4757.946,1333.443a6.291,6.291,0,0,0-6.246,6.288v9.125c0,6.044,2.049,11.532,10.706,10.942l17.646-3.3c-1.209-.031-2.186-2.27-2.186-5.031s.992-5.031,2.21-5.031l-16.825.091v-7.948a5.126,5.126,0,0,0-5.125-5.125h-.042Z" transform="translate(-4751.7 -1333.443)"/><ellipse class="o" cx="2.21" cy="5.032" rx="2.21" ry="5.032" transform="translate(26.166 12.987)"/><path class="z" d="M4740.2,1346.273c0,2.011.629,3.641,1.406,3.641h14.979a1.2,1.2,0,0,0,1.195-1.2,1.217,1.217,0,0,0-.17-.627,1.235,1.235,0,0,0-.478-.438l-6.532-3.278a16.247,16.247,0,0,0-7.325-1.741h-1.668C4740.83,1342.63,4740.2,1344.261,4740.2,1346.273Z" transform="translate(-4713.148 -1329.643)"/></g><g transform="translate(14.322 6.126)"><path class="z" d="M4757.089,1335.06h0a1.775,1.775,0,0,0,.148.256,2.093,2.093,0,0,0,1.734.854h1.937a3.053,3.053,0,0,0,1.1-.2,2.619,2.619,0,0,0,1.4-1.2,2.934,2.934,0,0,0,.172-.992v-.4l-5.5-2.766-.985,3.094A2.2,2.2,0,0,0,4757.089,1335.06Z" transform="translate(-4756.983 -1330.62)"/><path class="z" d="M4756.974,1331.1a1.572,1.572,0,0,0,.245.833l3.758,4.041a2.564,2.564,0,0,0,1.476-1.354,3.449,3.449,0,0,0,.1-.825v-.4l-5.494-2.765A1.568,1.568,0,0,0,4756.974,1331.1Z" transform="translate(-4755.949 -1330.616)"/></g><g transform="translate(12.978)"><g transform="translate(0 3.377)"><path class="z" d="M4763.308,1328.675h-1.223a1.217,1.217,0,0,0-1.218,1.217h0v.5a1.217,1.217,0,0,0,1.218,1.217h1.219v-2.939Z" transform="translate(-4760.867 -1328.675)"/></g><path class="z" d="M4755.974,1328.766v3.154l1.339,1.618a2.62,2.62,0,0,0,2.021.96h2.135a1.438,1.438,0,0,0,1.422-1.454,1.4,1.4,0,0,0-.055-.378l-1.32-4.721Z" transform="translate(-4753.532 -1325.6)"/><path class="aa" d="M4755.974,1328.822h.715a.715.715,0,0,1,.715.714v2.232l1.335,1.616a2.62,2.62,0,0,0,2.022.959h2.137a1.434,1.434,0,0,0,1.419-1.454,1.368,1.368,0,0,0-.054-.376l-.388-1.388h-5.208a.621.621,0,0,1-.618-.622v-.432a1.625,1.625,0,0,1,.392-1.041,1.887,1.887,0,0,1,.974-.711Z" transform="translate(-4754.959 -1325.445)"/><path class="w" d="M4764.358,1328.3a.339.339,0,0,0,.315-.365l0-.027a.379.379,0,0,0-.439-.282l-2.464.368a3.163,3.163,0,0,0-3.024-1.695c-3.631.322-3.631,3.364-3.631,3.364Z" transform="translate(-4754.101 -1326.286)"/></g></g></g><g transform="translate(425.304 123.68)"><path class="s" d="M.137,0H14.065C14.693,0,15.2.822,15.2.822l3.41,4.111c0,.454-.509.822-1.137.822H1.561c-.628,0-1.137-.368-1.137-.822L-1,.822C-1,.368-.491,0,.137,0Z" transform="translate(1 0)"/><g transform="matrix(1, -0.017, 0.017, 1, 3.015, 1.518)"><path d="M12.911.3l-.368.3h-.187L12.4.54H.626L.869.064H12.4L12.355,0h.187Zm-6.1.386L6.261,1.77h.747L7.56.688ZM.551.688,0,1.77H.728l.315-.622h.946L2.225.688ZM3.071.677a.606.606,0,0,0-.538.329l-.395.776H2.61l.41-.8h.71l-.053.1H3.093l-.152.3h.584l-.205.4h.472L4.354.675H3.071ZM4.2,1.493,4.048,1.8H5.5a.478.478,0,0,0,.478-.478.236.236,0,0,0-.236-.236H4.9L4.961.963h1.12l.154-.3H5.055a.708.708,0,0,0-.642.423.2.2,0,0,0,.176.289h.891l-.062.121H4.2Zm4.7-.119.148-.289h-.7a.6.6,0,0,0-.538.331L7.772,1.5a.2.2,0,0,0,.181.293H9.308L9.752.926a.179.179,0,0,0-.159-.26H8.261L8.1.979H9.24l-.055.106-.2.4H8.261l.051-.106H8.9ZM11.6.653A.171.171,0,0,1,11.749.9l-.6,1.18a.561.561,0,0,1-.5.306H4.3l.077.093H4.229l-.3-.247.3-.247h.152L4.3,2.079H10.66l.163-.32H9.93A.178.178,0,0,1,9.771,1.5l.3-.582a.49.49,0,0,1,.437-.267H11.6M11.24.941h-.7l-.26.511h.7Z" transform="translate(0.317 0.456)"/><path class="ab" d="M.243,0,0,.476H2.275L2.518,0Z" transform="translate(6.387 0.482)"/><path class="ac" d="M.243,0,0,.476H5.481L5.724,0Z" transform="translate(0.906 0.482)"/><path class="ac" d="M4.16,0H3.973l.04.064H.243L0,.54H4.013l-.04.066H4.16l.37-.3Z" transform="translate(8.662 0.418)"/><path class="s" d="M.031.381C.216.287.3.375.324.4L.258.445A.233.233,0,0,0,.035.43l0-.048M.015.247.022.309C.3.168.41.311.426.333L.507.28C.436.135.148.159.015.247M0,.11.007.17C.355.015.531.09.608.212L.692.157C.542-.084.181,0,0,.11" transform="translate(7.421 0.5)"/><path class="ac" d="M.026.418C.434.182.851.238.981.493L.871.566C.752.346.37.3.035.509L.026.418M0,.178.013.3c.443-.238.922-.209,1.1.1L1.27.3C1.133-.073.377-.08,0,.178" transform="translate(7.373 0)"/><path class="ac" d="M1.989.492H1.043l-.315.622H0L.551.031H2.225ZM3.073.018a.606.606,0,0,0-.538.329l-.395.776h.472l.41-.8h.71l-.053.1H3.093l-.152.3h.584l-.2.4h.472L4.357.015H3.073ZM6.083.3,6.237,0H5.058a.713.713,0,0,0-.644.423A.2.2,0,0,0,4.59.712h.891L5.419.833H4.2l-.157.306H5.5A.478.478,0,0,0,5.979.661.238.238,0,0,0,5.743.423H4.9L4.961.3Z" transform="translate(0.28 1.078)"/><path class="ab" d="M3.082,1.116H2.335L2.886.033h.747ZM5.664.011H4.332L4.174.324h1.14L5.258.43l-.2.4H4.335L4.385.721h.6L5.128.432h-.7a.6.6,0,0,0-.538.331L3.847.849a.2.2,0,0,0,.181.293H5.384L5.827.273A.184.184,0,0,0,5.664.011M7.67,0a.17.17,0,0,1,.152.249l-.6,1.179a.56.56,0,0,1-.5.307H.375l.079.093H.3L0,1.581l.3-.245H.454l-.079.093H6.731l.163-.32H6A.178.178,0,0,1,5.843.851l.3-.582A.49.49,0,0,1,6.577,0H7.67M7.311.289h-.7L6.347.8h.7Z" transform="translate(4.209 1.073)"/><path class="ad" d="M3.719.075H3.282A.02.02,0,0,1,3.264.044L3.275.022A.036.036,0,0,1,3.308,0h.437a.02.02,0,0,1,.018.031L3.752.055a.036.036,0,0,1-.033.02m.986,0A.034.034,0,0,0,4.737.053L4.748.031A.021.021,0,0,0,4.731,0H4.294a.042.042,0,0,0-.035.02L4.248.042a.021.021,0,0,0,.018.031H4.7m.986,0A.039.039,0,0,0,5.725.053L5.736.031A.021.021,0,0,0,5.718,0H5.282a.042.042,0,0,0-.035.02L5.235.042a.021.021,0,0,0,.018.031H5.69m.986,0A.039.039,0,0,0,6.71.053L6.721.031A.021.021,0,0,0,6.7,0H6.267a.035.035,0,0,0-.033.02L6.223.042a.021.021,0,0,0,.018.031h.434M.325,2A.027.027,0,0,0,.35,1.982l.007-.015a.016.016,0,0,0-.013-.022H.034A.027.027,0,0,0,.01,1.96L0,1.975A.016.016,0,0,0,.015,2H.325M1.82,2a.027.027,0,0,0,.024-.015l.007-.015a.016.016,0,0,0-.013-.022H1.529a.027.027,0,0,0-.024.015L1.5,1.975A.016.016,0,0,0,1.509,2H1.82m1.5,0a.027.027,0,0,0,.024-.015l.007-.015a.016.016,0,0,0-.013-.022H3.026A.027.027,0,0,0,3,1.96l-.009.015A.016.016,0,0,0,3.006,2h.311M4.812,2a.027.027,0,0,0,.024-.015l.007-.015a.016.016,0,0,0-.013-.022H4.521A.027.027,0,0,0,4.5,1.96l-.009.015A.016.016,0,0,0,4.5,2h.311" transform="translate(5.727 0.683)"/><path d="M0,.254.126.007H.348L.337.027H.145L.1.115H.271L.26.135H.088l-.051.1h.2L.223.251H0Zm.432-.1Q.343.162.32.205a.029.029,0,0,0,0,.022A.022.022,0,0,0,.324.243.052.052,0,0,0,.346.251a.116.116,0,0,0,.029,0A.216.216,0,0,0,.428.247.268.268,0,0,0,.481.225s0,.007,0,.009V.243s0,0,0,.007,0,0,.009,0H.5a.028.028,0,0,0,.013,0l.011,0L.534.232c-.013,0-.022,0-.024,0s0-.007,0-.015L.56.121A.076.076,0,0,0,.567.095.022.022,0,0,0,.556.077.063.063,0,0,0,.531.068.149.149,0,0,0,.5.066a.244.244,0,0,0-.04,0A.168.168,0,0,0,.423.079.138.138,0,0,0,.392.1.1.1,0,0,0,.368.123H.4A.076.076,0,0,1,.414.1L.437.09.461.084a.115.115,0,0,1,.029,0A.06.06,0,0,1,.531.093q.01.01,0,.027A.049.049,0,0,0,.525.13.02.02,0,0,1,.511.139s-.013,0-.02,0l-.02,0ZM.5.187a.048.048,0,0,1-.02.022A.121.121,0,0,1,.452.225.183.183,0,0,1,.419.234a.177.177,0,0,1-.035,0,.043.043,0,0,1-.018,0C.359.232.355.232.353.227A.012.012,0,0,1,.346.216.028.028,0,0,1,.348.2.061.061,0,0,1,.379.176.19.19,0,0,1,.434.165l.037,0A.246.246,0,0,0,.511.157ZM.65.2a.048.048,0,0,0,0,.024A.04.04,0,0,0,.655.24c0,.007.013.009.022.013a.153.153,0,0,0,.035,0,.272.272,0,0,0,.042,0A.164.164,0,0,0,.789.247.118.118,0,0,0,.818.232.063.063,0,0,0,.838.209a.024.024,0,0,0,0-.026A.044.044,0,0,0,.818.168.117.117,0,0,0,.785.159L.752.152A.061.061,0,0,1,.728.141a.013.013,0,0,1,0-.018A.055.055,0,0,1,.752.1.092.092,0,0,1,.8.093.066.066,0,0,1,.836.1.023.023,0,0,1,.842.13H.871C.877.11.875.095.864.086A.1.1,0,0,0,.807.073.175.175,0,0,0,.736.086.088.088,0,0,0,.694.123a.024.024,0,0,0,0,.027A.044.044,0,0,0,.714.165.114.114,0,0,0,.747.174L.783.181A.146.146,0,0,1,.807.19a.016.016,0,0,1,0,.02A.029.029,0,0,1,.8.223.093.093,0,0,1,.783.234.065.065,0,0,1,.761.24a.116.116,0,0,1-.029,0A.073.073,0,0,1,.688.234Q.675.224.681.2H.65ZM.9.32l.011,0H.919a.11.11,0,0,0,.026,0A.158.158,0,0,0,.972.3L1,.28,1.032.249,1.21.075H1.18L1.025.227V.075H.994L1,.254A.1.1,0,0,1,.981.267.1.1,0,0,1,.966.282L.946.3A.037.037,0,0,1,.924.3H.913A.02.02,0,0,1,.9.3ZM1.519.236l-.013,0H1.495c-.007,0-.011,0-.013,0a0,0,0,0,1,0,0,.017.017,0,0,1,0-.009s0-.007,0-.011L1.546.09h.046L1.6.073H1.557L1.581.024H1.552L1.528.073H1.495L1.486.09h.033L1.453.22c-.007.013-.009.022,0,.029a.041.041,0,0,0,.029.007.062.062,0,0,0,.02,0,.043.043,0,0,1,.015,0Zm.231.022A.173.173,0,0,0,1.8.251a.16.16,0,0,0,.044-.02A.244.244,0,0,0,1.881.2.144.144,0,0,0,1.907.165.081.081,0,0,0,1.918.128.032.032,0,0,0,1.911.1a.044.044,0,0,0-.024-.02A.129.129,0,0,0,1.841.073a.206.206,0,0,0-.053.007A.209.209,0,0,0,1.742.1a.155.155,0,0,0-.035.029A.145.145,0,0,0,1.68.165a.078.078,0,0,0-.011.04.041.041,0,0,0,.009.029A.056.056,0,0,0,1.7.251a.181.181,0,0,0,.046.007m.13-.095a.111.111,0,0,1-.02.029.267.267,0,0,1-.026.024A.247.247,0,0,1,1.8.234.127.127,0,0,1,1.759.24a.132.132,0,0,1-.033,0A.041.041,0,0,1,1.709.22.043.043,0,0,1,1.7.2.105.105,0,0,1,1.715.165a.115.115,0,0,1,.02-.029A.139.139,0,0,1,1.762.113.241.241,0,0,1,1.795.095a.124.124,0,0,1,.04-.007A.077.077,0,0,1,1.87.095.041.041,0,0,1,1.887.11a.044.044,0,0,1,0,.024.072.072,0,0,1-.009.029M2.54.077a.058.058,0,0,0,0-.033A.042.042,0,0,0,2.527.02.1.1,0,0,0,2.5,0a.149.149,0,0,0-.046,0,.334.334,0,0,0-.066.007.3.3,0,0,0-.062.022.238.238,0,0,0-.053.04.2.2,0,0,0-.042.06.162.162,0,0,0-.018.049.067.067,0,0,0,0,.042.066.066,0,0,0,.031.029.154.154,0,0,0,.062.011A.267.267,0,0,0,2.368.251a.19.19,0,0,0,.053-.02A.2.2,0,0,0,2.463.2.236.236,0,0,0,2.5.17H2.463A.168.168,0,0,1,2.434.2.286.286,0,0,1,2.4.218a.111.111,0,0,1-.037.013.137.137,0,0,1-.042,0A.121.121,0,0,1,2.269.227.064.064,0,0,1,2.244.2a.063.063,0,0,1,0-.035.147.147,0,0,1,.015-.04A.178.178,0,0,1,2.286.086a.208.208,0,0,1,.04-.035A.2.2,0,0,1,2.375.027.165.165,0,0,1,2.432.018a.112.112,0,0,1,.062.013.039.039,0,0,1,.013.044H2.54Zm.093.088A.208.208,0,0,1,2.65.137.128.128,0,0,1,2.674.113.115.115,0,0,1,2.707.1a.088.088,0,0,1,.042,0L2.76.071a.134.134,0,0,0-.053.009.137.137,0,0,0-.044.029h0L2.681.075H2.652L2.58.251h.009ZM3,.172A.077.077,0,0,1,2.983.2.088.088,0,0,1,2.957.22a.076.076,0,0,1-.031.013.17.17,0,0,1-.033,0c-.022,0-.035,0-.042-.013a.036.036,0,0,1,0-.035l.06-.117H2.886L2.826.19a.063.063,0,0,0-.009.026c0,.009,0,.015,0,.02a.032.032,0,0,0,.02.013.091.091,0,0,0,.037,0,.116.116,0,0,0,.029,0L2.932.245,2.954.236A.123.123,0,0,1,2.972.227L2.959.251h.029l.09-.176H3.051ZM3.285.037,3.3.007H3.27L3.254.037ZM3.173.254l.09-.176H3.234l-.09.176ZM3.307.2A.047.047,0,0,0,3.3.22a.027.027,0,0,0,.009.02c0,.007.013.009.022.013a.153.153,0,0,0,.035,0,.258.258,0,0,0,.042,0A.165.165,0,0,0,3.446.247.118.118,0,0,0,3.475.232a.063.063,0,0,0,.02-.022.024.024,0,0,0,0-.026.048.048,0,0,0-.02-.015A.117.117,0,0,0,3.444.159L3.411.152A.061.061,0,0,1,3.386.141a.013.013,0,0,1,0-.018A.055.055,0,0,1,3.411.1.092.092,0,0,1,3.455.093.066.066,0,0,1,3.495.1.023.023,0,0,1,3.5.13H3.53c.007-.02,0-.035-.007-.044A.1.1,0,0,0,3.466.073.175.175,0,0,0,3.4.086a.088.088,0,0,0-.042.037.024.024,0,0,0,0,.027.043.043,0,0,0,.022.015.115.115,0,0,0,.033.009l.035.007A.146.146,0,0,1,3.466.19a.016.016,0,0,1,0,.02.056.056,0,0,1-.011.013.093.093,0,0,1-.015.011A.064.064,0,0,1,3.42.24a.116.116,0,0,1-.029,0A.073.073,0,0,1,3.347.234Q3.334.224,3.34.2H3.307ZM3.836.17A.07.07,0,0,0,3.845.1C3.834.079,3.812.073,3.779.073a.189.189,0,0,0-.051.007A.157.157,0,0,0,3.684.1.165.165,0,0,0,3.647.13.144.144,0,0,0,3.62.168a.127.127,0,0,0-.013.037.04.04,0,0,0,0,.029.044.044,0,0,0,.024.02A.13.13,0,0,0,3.682.26a.242.242,0,0,0,.042,0A.1.1,0,0,0,3.759.243.139.139,0,0,0,3.79.225.264.264,0,0,0,3.816.2H3.786a.122.122,0,0,1-.042.031.152.152,0,0,1-.053.011A.073.073,0,0,1,3.658.236.04.04,0,0,1,3.64.22a.036.036,0,0,1,0-.022A.062.062,0,0,1,3.644.172h.192ZM3.658.152l.02-.024L3.7.108A.078.078,0,0,1,3.735.095a.091.091,0,0,1,.035,0,.114.114,0,0,1,.031,0,.038.038,0,0,1,.018.013.033.033,0,0,1,0,.02.065.065,0,0,1-.009.024Z" transform="translate(0 2.52)"/></g></g></g><g transform="translate(463.917 -10)"><circle class="ae" cx="21.273" cy="21.273" r="21.273" transform="translate(68.01)"/><path class="s" d="M1004.814,439.149v-.33A15.832,15.832,0,0,0,989.868,429a16.826,16.826,0,0,0-6.063,1.118,1.247,1.247,0,0,1-1.723-1.1V429a13.8,13.8,0,0,0-.989-5.157,16.3,16.3,0,0,0-29.723,0c-.053.127-.1.257-.15.387q-.287-.2-.583-.387a16.854,16.854,0,0,0-17.76,0,14.5,14.5,0,0,0-6.978,12.232v.021a.891.891,0,0,1-1.444.638,19.733,19.733,0,0,0-12.08-3.956,18.924,18.924,0,0,0-14.585,6.37Z" transform="translate(-897.79 -394.032)"/><g transform="translate(30.117 28.388)"><circle class="af" cx="0.785" cy="0.785" r="0.785" transform="translate(4.56 2.926)"/><circle class="af" cx="0.785" cy="0.785" r="0.785" transform="translate(9.489 2.568)"/><circle class="af" cx="0.785" cy="0.785" r="0.785" transform="translate(14.42 2.211)"/><circle class="af" cx="0.785" cy="0.785" r="0.785" transform="translate(19.35 1.851)"/><circle class="af" cx="0.785" cy="0.785" r="0.785" transform="translate(23.455 1.494)"/><circle class="af" cx="0.785" cy="0.785" r="0.785" transform="translate(2.28 5.661)"/><circle class="af" cx="0.785" cy="0.785" r="0.785" transform="translate(7.209 5.303)"/><circle class="af" cx="0.785" cy="0.785" r="0.785" transform="translate(12.14 4.946)"/><circle class="af" cx="0.785" cy="0.785" r="0.785" transform="translate(11.975)"/><circle class="af" cx="0.785" cy="0.785" r="0.785" transform="translate(17.071 4.586)"/><circle class="af" cx="0.785" cy="0.785" r="0.785" transform="translate(22.001 4.228)"/><circle class="af" cx="0.785" cy="0.785" r="0.785" transform="translate(0 8.396)"/><circle class="af" cx="0.785" cy="0.785" r="0.785" transform="translate(4.931 8.038)"/><circle class="af" cx="0.785" cy="0.785" r="0.785" transform="translate(9.86 7.68)"/><circle class="af" cx="0.785" cy="0.785" r="0.785" transform="translate(14.791 7.323)"/><circle class="af" cx="0.785" cy="0.785" r="0.785" transform="translate(2.633 10.518)"/><circle class="af" cx="0.785" cy="0.785" r="0.785" transform="translate(7.562 10.16)"/><circle class="af" cx="0.785" cy="0.785" r="0.785" transform="translate(12.492 9.802)"/><circle class="af" cx="0.785" cy="0.785" r="0.785" transform="translate(17.423 9.443)"/><circle class="af" cx="0.785" cy="0.785" r="0.785" transform="translate(22.354 9.085)"/><circle class="af" cx="0.785" cy="0.785" r="0.785" transform="translate(0.356 13.304)"/><circle class="af" cx="0.785" cy="0.785" r="0.785" transform="translate(5.287 12.946)"/><circle class="af" cx="0.785" cy="0.785" r="0.785" transform="translate(10.218 12.588)"/><circle class="af" cx="0.785" cy="0.785" r="0.785" transform="translate(15.147 12.229)"/><circle class="af" cx="0.785" cy="0.785" r="0.785" transform="translate(20.077 11.871)"/><circle class="af" cx="0.785" cy="0.785" r="0.785" transform="translate(25.008 11.513)"/><circle class="af" cx="0.785" cy="0.785" r="0.785" transform="translate(3.01 15.732)"/><circle class="af" cx="0.785" cy="0.785" r="0.785" transform="translate(7.941 15.374)"/><circle class="af" cx="0.785" cy="0.785" r="0.785" transform="translate(12.872 15.016)"/><circle class="af" cx="0.785" cy="0.785" r="0.785" transform="translate(17.802 14.657)"/><circle class="af" cx="0.785" cy="0.785" r="0.785" transform="translate(22.731 14.299)"/><circle class="af" cx="0.785" cy="0.785" r="0.785" transform="translate(5.666 18.16)"/><circle class="af" cx="0.785" cy="0.785" r="0.785" transform="translate(15.526 17.443)"/><circle class="af" cx="0.785" cy="0.785" r="0.785" transform="translate(20.456 17.085)"/><circle class="af" cx="0.785" cy="0.785" r="0.785" transform="translate(25.386 16.728)"/><circle class="af" cx="0.785" cy="0.785" r="0.785" transform="translate(30.316 16.37)"/><circle class="af" cx="0.785" cy="0.785" r="0.785" transform="translate(18.18 19.871)"/><circle class="af" cx="0.785" cy="0.785" r="0.785" transform="translate(28.041 19.156)"/><circle class="af" cx="0.785" cy="0.785" r="0.785" transform="translate(15.879 22.306)"/><circle class="af" cx="0.785" cy="0.785" r="0.785" transform="translate(30.695 21.584)"/><circle class="af" cx="0.785" cy="0.785" r="0.785" transform="translate(35.793 21.213)"/></g><path class="ag" d="M1004.814,438.839a15.832,15.832,0,0,0-14.946-9.82,16.824,16.824,0,0,0-6.063,1.118,1.247,1.247,0,0,1-1.723-1.1v-.02a13.8,13.8,0,0,0-.989-5.157,16.3,16.3,0,0,0-29.723,0c-.053.127-.1.257-.15.387q-.287-.2-.583-.387a16.854,16.854,0,0,0-17.76,0,14.5,14.5,0,0,0-6.978,12.232v.021a.891.891,0,0,1-1.444.638,19.733,19.733,0,0,0-12.08-3.956,18.924,18.924,0,0,0-14.585,6.37" transform="translate(-897.79 -394.049)"/></g><path class="s" d="M3646.976-4374.094l4.077-2.937.356,8.583h-5.122Z" transform="translate(-3551.063 4609.528)"/></g></g><g transform="translate(657.566 386.684)"><g transform="translate(0)"><g transform="translate(0)"><g transform="translate(190.122 3.273)"><g transform="translate(0.273)"><path class="p" d="M2168.08,2002.87a12.582,12.582,0,0,1,2.615,2.957l26.449,41.5.3.117,36.426-.117L2209.4,2008.93c0-.006-.006-.006-.006-.012" transform="translate(-2168.08 -2002.87)"/></g><g transform="translate(29.637 44.453)"><line class="ah" x1="36.426" y2="0.118" transform="translate(0)"/></g><path class="p" d="M2167.617,2002.87h30.774a13.1,13.1,0,0,1,10.819,6.061" transform="translate(-2167.617 -2002.87)"/><path class="p" d="M2168.08,2002.87a12.582,12.582,0,0,1,2.615,2.957l26.449,41.5.3.117" transform="translate(-2167.807 -2002.87)"/></g><g transform="translate(260.397 88.369)"><path class="ai" d="M1443.609,2392.271c0,9.1-6.728,16.473-15.028,16.473h3.976c8.6,0,14.922-7.375,14.922-16.473s-6.319-16.471-14.922-16.471h-3.976C1436.881,2375.8,1443.609,2383.17,1443.609,2392.271Z" transform="translate(-1413.552 -2375.797)"/><path class="aj" d="M1460.23,2375.8h0Z" transform="translate(-1445.423 -2375.798)"/><path class="aj" d="M1460.23,2430.972h0Z" transform="translate(-1445.423 -2398.025)"/><path class="ak" d="M1435.063,2392.269c0,9.016,6.609,16.341,14.806,16.47h.223c8.3,0,15.028-7.375,15.028-16.472s-6.729-16.472-15.028-16.472h-.223C1441.672,2375.93,1435.063,2383.253,1435.063,2392.269Z" transform="translate(-1435.063 -2375.795)"/><ellipse class="i" cx="10.699" cy="11.727" rx="10.699" ry="11.727" transform="translate(4.33 4.876)"/></g><g transform="translate(78.657 88.369)"><path class="ai" d="M1443.609,2392.271c0,9.1-6.728,16.473-15.028,16.473h3.976c8.6,0,14.922-7.375,14.922-16.473s-6.319-16.471-14.922-16.471h-3.976C1436.881,2375.8,1443.609,2383.17,1443.609,2392.271Z" transform="translate(-1413.552 -2375.797)"/><path class="aj" d="M1460.23,2375.8h0Z" transform="translate(-1445.423 -2375.798)"/><path class="aj" d="M1460.23,2430.972h0Z" transform="translate(-1445.423 -2398.025)"/><path class="ak" d="M1435.063,2392.269c0,9.016,6.609,16.341,14.806,16.47h.223c8.3,0,15.028-7.375,15.028-16.472s-6.729-16.472-15.028-16.472h-.223C1441.672,2375.93,1435.063,2383.253,1435.063,2392.269Z" transform="translate(-1435.063 -2375.795)"/><ellipse class="i" cx="10.699" cy="11.727" rx="10.699" ry="11.727" transform="translate(4.33 4.876)"/></g><path class="al" d="M1410.741,2292.156v38.386h294.167v-32.779a11.455,11.455,0,0,0-6.7-10.422l-42.352-16.555-26.814-42.072a12.829,12.829,0,0,0-10.82-5.937H1519.5c-22.846,0-32.065,7.116-42.855,19.512l-8.2,9.416a91.236,91.236,0,0,1-19.048,16.561h-25.511a13.092,13.092,0,0,0-13.092,13.091v9.758A9.1,9.1,0,0,0,1410.741,2292.156Z" transform="translate(-1399.93 -2222.777)"/><path class="am" d="M1412.867,2320.345v41.95h292.606v-30.451c0-4.218-4.321-8.045-8.311-9.791L1655.61,2306.5H1426.721A13.853,13.853,0,0,0,1412.867,2320.345Z" transform="translate(-1401.764 -2256.506)"/><rect class="an" width="312.921" height="7.49" rx="3.745" transform="translate(0 100.45)"/><rect class="w" width="26.367" height="12.897" rx="6.449" transform="translate(272.415 81.468)"/><line class="ao" x2="18.974" transform="translate(276.112 85.079)"/><line class="ao" x2="18.974" transform="translate(276.112 88.091)"/><line class="ao" x2="18.974" transform="translate(276.112 91.104)"/><g transform="translate(58.435 2.938)"><path class="h" d="M1678.927,2251.6v21.285h66.182v-40.5a4.687,4.687,0,0,0-4.687-4.687H1721.7c-19.081,0-28.76,5.7-39.287,15.771A11.263,11.263,0,0,0,1678.927,2251.6Z" transform="translate(-1658.706 -2227.698)"/><path class="al" d="M1798.389,2289.3h13.75v-20.123a.744.744,0,0,0-1.306-.489l-3.788,4.351A91.259,91.259,0,0,1,1796.3,2283.5,3.276,3.276,0,0,0,1798.389,2289.3Z" transform="translate(-1795.109 -2244.108)"/></g><g transform="translate(32.452 80.813)"><path class="o" d="M1833.856,2389.211h-43.992c.365-10.861,7.962-21.426,22.019-21.426C1823.973,2367.781,1833.223,2377.9,1833.856,2389.211Z" transform="translate(-1787.712 -2362.011)"/><path class="al" d="M1785.5,2374.6c4.166-9.718,13.42-16.479,24.171-16.479,11.123,0,20.646,7.239,24.582,17.5" transform="translate(-1785.496 -2358.116)"/><path class="ai" d="M1798.374,2408.743h3.977c8.6,0,14.921-7.375,14.921-16.473s-6.317-16.471-14.921-16.471h-3.977c8.3,0,15.029,7.373,15.029,16.471S1806.674,2408.743,1798.374,2408.743Z" transform="translate(-1776.209 -2365.241)"/><path class="an" d="M1804.853,2392.269c0,9.018,6.609,16.342,14.806,16.47h.221c8.3,0,15.029-7.375,15.029-16.472s-6.729-16.472-15.029-16.472h-.221C1811.462,2375.928,1804.853,2383.252,1804.853,2392.269Z" transform="translate(-1797.715 -2365.239)"/><ellipse class="i" cx="10.699" cy="11.727" rx="10.699" ry="11.727" transform="translate(11.467 15.432)"/><path class="o" d="M1548.825,2389.211h-43.994c.367-10.861,7.962-21.426,22.019-21.426C1538.94,2367.781,1548.189,2377.9,1548.825,2389.211Z" transform="translate(-1332.482 -2362.011)"/><path class="al" d="M1500.464,2374.6c4.167-9.718,13.421-16.479,24.171-16.479,11.123,0,20.647,7.239,24.582,17.5" transform="translate(-1330.267 -2358.116)"/><path class="ai" d="M1513.341,2408.743h3.976c8.6,0,14.922-7.375,14.922-16.473s-6.319-16.471-14.922-16.471h-3.976c8.3,0,15.028,7.373,15.028,16.471S1521.64,2408.743,1513.341,2408.743Z" transform="translate(-1320.978 -2365.241)"/><path class="an" d="M1519.822,2392.269c0,9.016,6.609,16.341,14.807,16.47h.221c8.3,0,15.028-7.375,15.028-16.472s-6.729-16.472-15.028-16.472h-.221C1526.431,2375.93,1519.822,2383.253,1519.822,2392.269Z" transform="translate(-1342.487 -2365.239)"/><ellipse class="i" cx="10.699" cy="11.727" rx="10.699" ry="11.727" transform="translate(181.664 15.432)"/></g><g transform="translate(10.848 57.777)"><path class="s" d="M1879.718,2329.076h8.655a3.785,3.785,0,0,0,3.456-2.434l1.808-4.4a1.919,1.919,0,0,0-1.616-2.708h-12.3Z" transform="translate(-1879.697 -2319.537)"/><path class="al" d="M1875.962,2329.076h10.457a4.111,4.111,0,0,0,3.75-2.434l1.961-4.4a1.922,1.922,0,0,0-1.755-2.708h-14.416Z" transform="translate(-1875.958 -2319.537)"/><line class="al" x2="15.69" transform="translate(0.059 3.279)"/><line class="al" x2="14.413" transform="translate(0.059 6.365)"/><path class="s" d="M1478.1,2345.379h3.685v-3.958a12.4,12.4,0,0,0-7.3-11.3l-1.384-.625v10.869a5,5,0,0,0,4.99,5.01Z" transform="translate(-1224.894 -2323.551)"/><path class="s" d="M1416.4,2346.031h3.684v-3.958a12.385,12.385,0,0,0-7.3-11.3l-1.382-.625v10.879a5,5,0,0,0,5,5Z" transform="translate(-1126.345 -2323.814)"/></g><g transform="translate(78.656)"><g transform="matrix(1, -0.017, 0.017, 1, 103.991, 5.712)"><g transform="translate(0 0)"><g transform="translate(0.145 14.142)"><path class="ap" d="M0,27.983V9.829A9.829,9.829,0,0,1,9.829,0h23a9.565,9.565,0,0,1,8.809,5.839l9.368,22.144Z" transform="translate(0 0)"/><g transform="translate(0.21 2.059)"><path class="aq" d="M49.688.5H0V0H49.474Z" transform="translate(0 23.337)"/><path class="aq" d="M48.7.505H0V0H48.487Z" transform="translate(0 21.003)"/><path class="aq" d="M47.712.5H0V0H47.5Z" transform="translate(0 18.67)"/><path class="aq" d="M46.725.505H0V0H46.512Z" transform="translate(0 16.336)"/><path class="aq" d="M45.737.5H0V0H45.524Z" transform="translate(0 14.002)"/><path class="aq" d="M44.751.5H0V0H44.537Z" transform="translate(0 11.668)"/><path class="aq" d="M43.763.5H0V0H43.55Z" transform="translate(0 9.334)"/><path class="aq" d="M42.771.505H0Q.007.252.026,0H42.555Z" transform="translate(0.004 6.997)"/><path class="aq" d="M41.432.5H0C.047.337.1.168.158,0H41.219Z" transform="translate(0.357 4.668)"/><path class="aq" d="M39.363.5H0Q.154.248.325,0H39.052C39.16.165,39.264.333,39.363.5Z" transform="translate(1.363 2.334)"/><path class="aq" d="M35.5.5H0C.2.328.415.159.634,0H34.888Q35.2.239,35.5.5Z" transform="translate(3.322 0)"/></g></g><path class="ar" d="M0,9.754H17.73C18.019,4.271,15.021.04,10.542,0,6.019-.043,1.541,4.205,0,9.754Z" transform="translate(43.749 33.431) rotate(1)"/><g transform="matrix(1, 0.017, -0.017, 1, 0.173, 32.195)"><path class="as" d="M45.556,9.928H0C2.861,7.549,31.074-3.51,42.862,1.121,49.664,3.795,45.556,9.928,45.556,9.928Z" transform="translate(0 0)"/></g><g transform="translate(17.658 8.357)"><path class="z" d="M9.99,5.785V1.423L3.735,0,0,5.785l10.071,6.407Z" transform="translate(0 0)"/><line class="at" x2="10.346" y2="6.406" transform="translate(0 5.785)"/><path class="o" d="M5.981,5.862V1.332L0,0H0A3.052,3.052,0,0,0,1.3,2.426Z" transform="translate(4.01 0.092)"/></g><g transform="translate(19.508 0)"><path class="au" d="M8,4.371a1.4,1.4,0,0,0-1.257-.786H3.684a1.3,1.3,0,0,0-.159.006A1.983,1.983,0,0,0,1.7,5.568v.621A1.869,1.869,0,0,1,0,4.3,1.863,1.863,0,0,1,1.828,2.4a1.728,1.728,0,0,1,.426.052C2.58,1.839,4.3-1.135,6.119.469c.482.421.053,1.278.024,1.338.084-.092,1.929-2.1,3.559-.543C10.972,2.476,9.009,3.806,8,4.371Z" transform="translate(1.152 0)"/><path class="z" d="M9.3,1.4V5.029a1.96,1.96,0,0,1-1.96,1.96H4.81a1.96,1.96,0,0,1-1.96-1.96V5.015H1.464A1.464,1.464,0,0,1,0,3.551V3.26A1.464,1.464,0,0,1,1.464,1.8h.228a1.514,1.514,0,0,1,1.158.532V1.983A1.983,1.983,0,0,1,4.833,0H7.894A1.4,1.4,0,0,1,9.3,1.4Z" transform="translate(0 3.585)"/><circle class="o" cx="1.449" cy="1.449" r="1.449" transform="translate(1.695 2.397)"/></g></g></g><path class="al" d="M1745.557,2353.933h-52.739a40.757,40.757,0,0,0-12.78-18.573v-28.54" transform="translate(-1680.039 -2256.637)"/><path class="al" d="M1534.686,2270.147v-37.764a4.687,4.687,0,0,1,4.687-4.687h67.434a12.831,12.831,0,0,1,10.821,5.937" transform="translate(-1465.316 -2224.759)"/><path class="al" d="M1627.627,2347.674a37.09,37.09,0,0,0-23.043,22.3h-45.078V2346.64" transform="translate(-1490.136 -2272.679)"/><path class="al" d="M1769.385,2312.329a1.158,1.158,0,0,0-.979-1.548h-10.868a1.145,1.145,0,0,0-.979,1.548" transform="translate(-1749.62 -2258.233)"/><path class="al" d="M1559.787,2330.543v-32.779a11.457,11.457,0,0,0-6.7-10.421l-42.351-16.556-26.815-42.072a12.829,12.829,0,0,0-10.82-5.937" transform="translate(-1370.701 -2222.777)"/></g><g transform="translate(196.599 38.5)"><path class="av" d="M1474.984,2294.349l1.187,1.861c.721-.758.808-.886,2.673-.886h5.271a3.1,3.1,0,0,0,3.1-3.1h0v-1.875a3.1,3.1,0,0,0-3.1-3.1h-1.98a5.119,5.119,0,0,0-4.315,2.366Z" transform="translate(-1417.196 -2287.254)"/><path class="s" d="M1471.576,2296l.247.387a4.383,4.383,0,0,1,.776-.474,8.807,8.807,0,0,1,3.822-.584h5.272a3.1,3.1,0,0,0,3.1-3.1h0v-1.875a3.1,3.1,0,0,0-3.1-3.1h-1.98a5.118,5.118,0,0,0-4.315,2.366Z" transform="translate(-1412.74 -2287.254)"/><path class="am" d="M1483.77,2291.275v1.792a3.1,3.1,0,0,1-3.1,3.1H1475.4a8.776,8.776,0,0,0-3.822.584l3.021-5.042a5.117,5.117,0,0,1,4.315-2.367h1.979A3.1,3.1,0,0,1,1483.77,2291.275Z" transform="translate(-1411.719 -2288.094)"/><path class="aw" d="M1471.576,2296l.247.387c1.2-.911,2.6-1.058,4.6-1.058h5.272a3.1,3.1,0,0,0,3.1-3.1h0v-1.875a3.1,3.1,0,0,0-3.1-3.1h-1.98a5.119,5.119,0,0,0-4.315,2.366Z" transform="translate(-1412.74 -2287.254)"/><path class="s" d="M1560.694,2290.472v1.875a3.1,3.1,0,0,0,3.1,3.1h10.442a8.781,8.781,0,0,1,3.822.584,4.556,4.556,0,0,1,1.21.844h.269l-4.27-7.131a5.115,5.115,0,0,0-4.315-2.366h-7.15a3.1,3.1,0,0,0-3.1,3.092Z" transform="translate(-1560.694 -2287.302)"/><path class="am" d="M1563.171,2291.388v1.788a3.1,3.1,0,0,0,3.1,3.1h10.442a8.777,8.777,0,0,1,3.822.584l-3.021-5.042a5.117,5.117,0,0,0-4.315-2.368h-7.151A3.1,3.1,0,0,0,1563.171,2291.388Z" transform="translate(-1563.171 -2288.138)"/><path class="aw" d="M1560.694,2290.472v1.875a3.1,3.1,0,0,0,3.1,3.1h10.442c2.244,0,3.735.186,5.032,1.428h.269l-4.27-7.131a5.115,5.115,0,0,0-4.315-2.366h-7.15a3.1,3.1,0,0,0-3.1,3.092Z" transform="translate(-1560.694 -2287.302)"/></g></g><g transform="translate(145.749 7.508)"><g transform="translate(13.054 13.148)"><path class="o" d="M1506.515,1262.886l20.974-3.486,6.095,15.159a6.207,6.207,0,0,1-1.256,6.59l-1.049,1.109V1287H1506.2Z" transform="translate(-1506.199 -1259.4)"/></g><g transform="translate(0 13.054)"><path class="aa" d="M1760.609,1280.144a6.208,6.208,0,0,0,1.256-6.589l-6.094-15.159a6.893,6.893,0,0,1,7.336,3.8l6.574,13.589a7.11,7.11,0,0,1-6.4,10.207h-3.722v-4.74Z" transform="translate(-1721.427 -1258.302)"/><g transform="translate(0 3.602)"><path class="aa" d="M1365.965,1300.591h0a7.683,7.683,0,0,0-5.646,4.257l-5.981,12.5c-4.756,9.939,5.909,20.193,15.654,15.054l14.758-7.786H1400.8a1.315,1.315,0,0,0,1.315-1.314h0a1.316,1.316,0,0,0-.723-1.174l-7.192-3.625a17.956,17.956,0,0,0-8.078-1.92h-15.492l.195-11.824a4.16,4.16,0,0,0-4.856-4.17Z" transform="translate(-1353.169 -1300.532)"/><path class="t" d="M1541.407,1496.464c.726,0,1.314-.31,1.314-1.037h0a1.315,1.315,0,0,0-.723-1.173l-7.193-3.625a17.953,17.953,0,0,0-8.078-1.92h-13.056a13.348,13.348,0,0,0-6.78,1.85" transform="translate(-1493.78 -1472.658)"/></g></g><g transform="translate(11.745)"><path class="ax" d="M1513.757,1118.374l-10.851,1.8c-1.031,4.351-4.9,7.034-9.175,5.56-9.3-3.206,6.679-16.08,9.422-18.473,2.933-2.559,6.824-2.632,7.724-.334.833,2.121-.9,3.071-2.133,3.247C1508.881,1111.155,1509.831,1116.987,1513.757,1118.374Z" transform="translate(-1490.855 -1105.27)"/><g transform="translate(11.398 7.194)"><path class="aa" d="M1630.158,1192.068v5.06a2.844,2.844,0,0,1-2.844,2.844h0a2.844,2.844,0,0,1-2.844-2.844V1189.6Z" transform="translate(-1624.47 -1189.6)"/><path class="o" d="M1624.47,1189.6h0l5.688,2.469v4.411l-3.447-2.162A6.084,6.084,0,0,1,1624.47,1189.6Z" transform="translate(-1624.47 -1189.6)"/></g><path class="aa" d="M1604.229,1143.976v3.428a2.232,2.232,0,0,1-2.233,2.232h-.517a3.533,3.533,0,0,1-3.012-1.682h-1.547a1.487,1.487,0,0,1,0-2.972h.464a1.047,1.047,0,0,1,.612.2l2.577-2.946A4.942,4.942,0,0,0,1604.229,1143.976Z" transform="translate(-1586.546 -1139.077)"/></g></g><line class="al" x2="72.41" transform="translate(183.584 48.128)"/><path class="ay" d="M1675.761,2292.357H1741.6v-15.274l-65.843,4.865v10.41Z" transform="translate(-1596.783 -2244.244)"/><g transform="translate(89.609 21.753)"><g transform="translate(0 15.667)"><path class="az" d="M821.15,1488.572c3.32-6.219,10.785-10.552,19.458-10.552s15.8,4.327,19.127,10.543Z" transform="translate(-821.15 -1478.02)"/><path class="ba" d="M1070.43,1485.11l-2.506,9.1v.006h-.515v-.006l.271-9.915A22.822,22.822,0,0,1,1070.43,1485.11Z" transform="translate(-1042.628 -1483.659)"/></g><g transform="translate(25.272 0)"><path class="az" d="M1085.651,1436.39v14.742H1072.29l4.115-14.742c0,.849,2.053,1.538,4.586,1.538S1085.348,1437.183,1085.651,1436.39Z" transform="translate(-1072.29 -1424.912)"/><path class="bb" d="M1122.426,1333.808c-.3.793-2.126,1.537-4.659,1.537s-4.587-.688-4.587-1.537v-6.34s.7-.273,1.573.8,1.509.691,1.906-.2c.444-.988,2.071-5.737,4.357-5.737,1.859,0,1.61,3.682,1.5,4.764a.081.081,0,0,0,.144.056c.328-.43,1.031-1.286,1.385-1.231C1124.52,1326,1122.571,1333.431,1122.426,1333.808Z" transform="translate(-1109.065 -1322.329)"/></g><g transform="translate(12.362 3.041)"><g transform="translate(3.149 10.373)"><path class="bb" d="M975.29,1455.63h7.05v2.258a3.29,3.29,0,0,1-3.29,3.29h-.469a3.289,3.289,0,0,1-3.289-3.29v-2.258Z" transform="translate(-975.29 -1455.63)"/><path class="bc" d="M975.29,1455.63h7.05v2.281a3.258,3.258,0,0,1-1.208,2.533l-3.754-1.625A3.475,3.475,0,0,1,975.29,1455.63Z" transform="translate(-975.29 -1455.63)"/></g><path class="bb" d="M947.158,1402.976a.32.32,0,0,0,.319.32h.172a.32.32,0,0,0,.32-.32v-.375a3.471,3.471,0,0,1,3.472-3.471h3.843l.242,4.439a3.1,3.1,0,0,1-3.09,3.264h-2.141a3.093,3.093,0,0,1-2.625-1.456H945.7a1.7,1.7,0,0,1-1.7-1.711,1.727,1.727,0,0,1,1.742-1.685h.42a1,1,0,0,1,1,.994Z" transform="translate(-944 -1394.442)"/><path class="bd" d="M965.265,1361.083a.32.32,0,0,1-.32.32h-.172a.32.32,0,0,1-.319-.32,1,1,0,0,0-.994-.994l-.23-1.645a2.4,2.4,0,0,1,2.236-2.529,1.992,1.992,0,0,1,.676.118,2.439,2.439,0,0,1,2.36-2.061,2.309,2.309,0,0,1,1.468.529,2.753,2.753,0,1,1,2.616,3.651,2.7,2.7,0,0,1-2.025-.916h-1.82a3.468,3.468,0,0,0-3.468,3.321Z" transform="translate(-961.295 -1352.55)"/></g></g></g><g transform="translate(216.38 6.144)"><path class="s" d="M.93,0H11.156C11.67,0,12.3.735,12.3.735a9.272,9.272,0,0,1,1.307,1.49c.723.993,1.584,2.482,1.584,2.482-.031.022-.735,0-1.249,0H.93c-.513,0-.93-.3-.93-.672V.672C0,.3.416,0,.93,0Z"/><g transform="translate(1.321 1.147)"><path d="M-106.54,282.447l-.3.247h-.153l.032-.052h-9.626l.2-.389h9.427l-.032-.052h.153Zm-4.988.316-.451.885h.611l.451-.885Zm-5.121,0-.451.885h.6l.258-.508h.774l.193-.377Zm2.061-.009a.5.5,0,0,0-.44.269l-.323.635h.386l.335-.658h.581l-.043.085h-.478l-.124.245h.478l-.168.328H-114l.46-.905h-1.049Zm.927.667-.128.251h1.188a.391.391,0,0,0,.391-.391.193.193,0,0,0-.193-.193h-.691l.051-.1h.916l.126-.247h-.965a.579.579,0,0,0-.525.346.163.163,0,0,0,.144.236h.729l-.051.1h-.994Zm3.844-.1.121-.236h-.572a.494.494,0,0,0-.44.271l-.036.07a.165.165,0,0,0,.148.24h1.109l.362-.71a.147.147,0,0,0-.13-.213h-1.089l-.13.256h.93l-.045.087-.164.325h-.591l.041-.087h.485Zm2.2-.59a.139.139,0,0,1,.124.2l-.49.965a.459.459,0,0,1-.409.251h-5.19l.063.076h-.124l-.245-.2.245-.2h.124l-.063.076h5.2l.133-.261h-.73a.146.146,0,0,1-.13-.211l.243-.476a.4.4,0,0,1,.357-.218h.893m-.292.236h-.575l-.213.418h.575Z" transform="translate(117.36 -281.827)"/><path class="ab" d="M158.4,283.4l-.2.389h1.861l.2-.389Z" transform="translate(-152.976 -283.006)"/><path class="ac" d="M-90.2,283.4l-.2.389h4.483l.2-.389Z" transform="translate(91.141 -283.006)"/><path class="ac" d="M264.8,280.5h-.153l.033.052H261.6l-.2.389h3.282l-.033.054h.153l.3-.249Z" transform="translate(-254.315 -280.158)"/><path class="s" d="M205.125,284.511c.151-.077.224-.005.24.016l-.054.036a.191.191,0,0,0-.182-.013l0-.04m-.013-.11.005.05c.227-.115.317,0,.33.02l.067-.043c-.058-.119-.294-.1-.4-.027m-.013-.112.005.049c.285-.126.429-.065.492.034l.069-.045c-.123-.2-.418-.132-.566-.038" transform="translate(-199.03 -283.791)"/><path class="ac" d="M202.922,261.865c.334-.193.674-.148.781.061l-.09.059c-.1-.18-.409-.215-.683-.047l-.007-.074m-.022-.2.011.1c.362-.195.754-.171.9.085l.13-.087c-.112-.307-.73-.312-1.039-.1" transform="translate(-196.87 -261.523)"/><path class="ac" d="M-117.174,310.8h-.774l-.258.508h-.6l.451-.885h1.369Zm.887-.388a.5.5,0,0,0-.44.269l-.323.635h.386l.335-.658h.581l-.043.085h-.48l-.124.245h.478l-.166.328h.386l.46-.905h-1.049Zm2.461.233.126-.247h-.965a.583.583,0,0,0-.527.346.163.163,0,0,0,.144.236h.728l-.05.1h-.994l-.128.251h1.188a.391.391,0,0,0,.391-.391.2.2,0,0,0-.193-.195h-.691l.05-.1Z" transform="translate(119.029 -309.519)"/><path class="ab" d="M61.921,311.112H61.31l.451-.885h.611Zm2.112-.9H62.943l-.13.256h.932l-.045.087-.164.325h-.591l.041-.087h.487l.121-.236h-.572a.494.494,0,0,0-.44.271l-.036.07a.165.165,0,0,0,.148.24H63.8l.362-.711a.15.15,0,0,0-.133-.215m1.641-.009a.139.139,0,0,1,.124.2l-.49.965a.458.458,0,0,1-.408.251H59.707l.065.076h-.126l-.245-.2.245-.2h.126l-.065.076h5.2l.133-.261h-.73a.146.146,0,0,1-.13-.211l.243-.476a.4.4,0,0,1,.357-.218h.894m-.294.234H64.8l-.213.418h.575Z" transform="translate(-55.958 -309.322)"/><path class="ad" d="M131.279,292.561h-.357a.016.016,0,0,1-.014-.025l.009-.018a.03.03,0,0,1,.027-.016h.357a.016.016,0,0,1,.014.025l-.009.018a.029.029,0,0,1-.027.016m.806,0a.028.028,0,0,0,.027-.018l.009-.018a.017.017,0,0,0-.014-.025h-.357a.034.034,0,0,0-.029.016l-.009.018a.017.017,0,0,0,.014.025h.359m.806,0a.032.032,0,0,0,.029-.018l.009-.018a.017.017,0,0,0-.014-.025h-.357a.034.034,0,0,0-.029.016l-.009.018a.017.017,0,0,0,.014.025h.357m.806,0a.032.032,0,0,0,.029-.018l.009-.018a.017.017,0,0,0-.014-.025h-.357a.029.029,0,0,0-.027.016l-.009.018a.017.017,0,0,0,.014.025h.355m-5.193,1.574a.022.022,0,0,0,.02-.013l.005-.013a.013.013,0,0,0-.011-.018h-.252a.022.022,0,0,0-.02.013l-.007.013a.013.013,0,0,0,.011.018h.254m1.223,0a.022.022,0,0,0,.02-.013l.005-.013a.013.013,0,0,0-.011-.018h-.252a.022.022,0,0,0-.02.013l-.007.013a.013.013,0,0,0,.011.018h.254m1.224,0a.022.022,0,0,0,.02-.013l.005-.013a.013.013,0,0,0-.011-.018h-.252a.022.022,0,0,0-.02.013l-.007.013a.013.013,0,0,0,.011.018h.254m1.223,0a.022.022,0,0,0,.02-.013l.005-.013a.013.013,0,0,0-.011-.018h-.252a.022.022,0,0,0-.02.013l-.007.013a.013.013,0,0,0,.011.018h.254" transform="translate(-123.554 -291.941)"/><path d="M-131.5,376.007l.1-.2h.182l-.009.016h-.157l-.038.072h.141l-.009.016h-.141l-.041.079h.16l-.009.016h-.182Zm.353-.083c-.049.005-.079.02-.092.043a.023.023,0,0,0,0,.018.018.018,0,0,0,.007.013.04.04,0,0,0,.018.007.094.094,0,0,0,.023,0,.181.181,0,0,0,.043-.005.225.225,0,0,0,.043-.018s0,.005,0,.007V376s0,0,0,.005,0,0,.007,0h.009a.024.024,0,0,0,.011,0l.009,0,.007-.013c-.011,0-.018,0-.02,0s0-.005,0-.013l.04-.079a.063.063,0,0,0,.005-.022.018.018,0,0,0-.009-.014.05.05,0,0,0-.02-.007.118.118,0,0,0-.027,0,.193.193,0,0,0-.032,0,.136.136,0,0,0-.029.009.118.118,0,0,0-.025.014.078.078,0,0,0-.02.022h.023a.062.062,0,0,1,.014-.016l.018-.011.02-.005a.1.1,0,0,1,.023,0,.049.049,0,0,1,.034.009c.005.005.005.013,0,.022a.041.041,0,0,0-.005.009.016.016,0,0,1-.011.007s-.011,0-.016,0l-.016,0Zm.056.029a.039.039,0,0,1-.016.018.1.1,0,0,1-.023.013.143.143,0,0,1-.027.007.143.143,0,0,1-.029,0,.035.035,0,0,1-.014,0c-.005,0-.009,0-.011-.005a.01.01,0,0,1-.005-.009.023.023,0,0,1,0-.011.049.049,0,0,1,.025-.022.149.149,0,0,1,.045-.009l.031,0a.217.217,0,0,0,.032-.005Zm.123.007a.039.039,0,0,0,0,.02.033.033,0,0,0,.007.016c0,.005.011.007.018.011a.127.127,0,0,0,.029,0,.215.215,0,0,0,.034,0,.137.137,0,0,0,.029-.007.1.1,0,0,0,.023-.013.051.051,0,0,0,.016-.018.019.019,0,0,0,0-.022.037.037,0,0,0-.018-.013.1.1,0,0,0-.027-.007l-.027-.005a.052.052,0,0,1-.02-.009.011.011,0,0,1,0-.014.045.045,0,0,1,.022-.018.077.077,0,0,1,.036-.007.055.055,0,0,1,.032.007.019.019,0,0,1,.005.023h.023a.031.031,0,0,0-.005-.036.079.079,0,0,0-.047-.011.144.144,0,0,0-.058.011.072.072,0,0,0-.034.031.019.019,0,0,0,0,.022.035.035,0,0,0,.018.013.1.1,0,0,0,.027.007l.029.005a.11.11,0,0,1,.02.007.013.013,0,0,1,0,.016.024.024,0,0,1-.009.011l-.013.009a.053.053,0,0,1-.018.005.094.094,0,0,1-.023,0,.06.06,0,0,1-.036-.007q-.011-.008-.005-.027h-.025Zm.2.1.009,0h.011a.091.091,0,0,0,.022,0,.133.133,0,0,0,.022-.013l.023-.018.025-.025.146-.142h-.025l-.126.124v-.124h-.025l0,.146-.013.011a.083.083,0,0,1-.013.013l-.016.011a.03.03,0,0,1-.018.005h-.009a.017.017,0,0,1-.009,0Zm.51-.069-.011,0h-.009c-.005,0-.009,0-.011,0a0,0,0,0,1,0,0,.014.014,0,0,1,0-.007s0-.005,0-.009l.05-.1h.038l.007-.014h-.036l.02-.04h-.023l-.02.04h-.027l-.007.014h.027l-.054.106c-.005.011-.007.018,0,.023a.034.034,0,0,0,.023.005.051.051,0,0,0,.016,0,.035.035,0,0,1,.013,0Zm.189.018a.141.141,0,0,0,.04-.005.129.129,0,0,0,.036-.016.2.2,0,0,0,.031-.023.119.119,0,0,0,.022-.031.067.067,0,0,0,.009-.031.026.026,0,0,0-.005-.023.036.036,0,0,0-.02-.016.105.105,0,0,0-.038-.005.168.168,0,0,0-.043.005.171.171,0,0,0-.038.016.124.124,0,0,0-.029.023.119.119,0,0,0-.022.031.063.063,0,0,0-.009.032.033.033,0,0,0,.007.023.045.045,0,0,0,.022.014.147.147,0,0,0,.038.005m.106-.078a.091.091,0,0,1-.016.023.223.223,0,0,1-.022.02.184.184,0,0,1-.027.014.1.1,0,0,1-.034.005.11.11,0,0,1-.027,0,.034.034,0,0,1-.014-.013.036.036,0,0,1,0-.02.083.083,0,0,1,.009-.025.091.091,0,0,1,.016-.023.108.108,0,0,1,.022-.02.191.191,0,0,1,.027-.014.1.1,0,0,1,.032-.005.063.063,0,0,1,.029.005.034.034,0,0,1,.014.013.036.036,0,0,1,0,.02.059.059,0,0,1-.007.023m.539-.07a.048.048,0,0,0,0-.027.034.034,0,0,0-.013-.02.087.087,0,0,0-.025-.013.124.124,0,0,0-.038,0,.285.285,0,0,0-.054.005.246.246,0,0,0-.05.018.2.2,0,0,0-.043.033.167.167,0,0,0-.034.049.133.133,0,0,0-.014.04.055.055,0,0,0,0,.034.054.054,0,0,0,.025.023.127.127,0,0,0,.05.009.217.217,0,0,0,.051-.005.153.153,0,0,0,.043-.016.166.166,0,0,0,.034-.023.191.191,0,0,0,.027-.027h-.027a.131.131,0,0,1-.023.022.256.256,0,0,1-.027.018.088.088,0,0,1-.031.011.112.112,0,0,1-.034,0,.1.1,0,0,1-.043-.007.052.052,0,0,1-.02-.02.051.051,0,0,1,0-.029.121.121,0,0,1,.013-.032.148.148,0,0,1,.023-.034.168.168,0,0,1,.032-.029.162.162,0,0,1,.04-.02.135.135,0,0,1,.047-.007.091.091,0,0,1,.051.011.032.032,0,0,1,.011.036h.027Zm.076.072a.162.162,0,0,1,.014-.023.1.1,0,0,1,.02-.02.092.092,0,0,1,.027-.013.072.072,0,0,1,.034,0l.009-.018a.108.108,0,0,0-.043.007.113.113,0,0,0-.036.023h0l.014-.027h-.023l-.059.144h.007Zm.3.005a.063.063,0,0,1-.016.022.073.073,0,0,1-.022.018.063.063,0,0,1-.025.011.137.137,0,0,1-.027,0c-.018,0-.029,0-.034-.011a.029.029,0,0,1,0-.029l.049-.1h-.023l-.049.1a.051.051,0,0,0-.007.022c0,.007,0,.013,0,.016a.026.026,0,0,0,.016.011.076.076,0,0,0,.031,0,.094.094,0,0,0,.023,0l.02-.005.018-.007.014-.007-.011.02h.023l.074-.144H-129Zm.231-.11.013-.025h-.025l-.013.025Zm-.092.177.074-.144h-.023l-.074.144Zm.11-.047a.038.038,0,0,0,0,.02.022.022,0,0,0,.007.016c0,.005.011.007.018.011a.127.127,0,0,0,.029,0,.2.2,0,0,0,.034,0,.138.138,0,0,0,.029-.007.1.1,0,0,0,.023-.013.051.051,0,0,0,.016-.018.019.019,0,0,0,0-.022.041.041,0,0,0-.016-.013.1.1,0,0,0-.027-.007l-.027-.005a.052.052,0,0,1-.02-.009.011.011,0,0,1,0-.014.045.045,0,0,1,.022-.018.077.077,0,0,1,.036-.007.055.055,0,0,1,.032.007.019.019,0,0,1,.005.023h.023a.031.031,0,0,0-.005-.036.079.079,0,0,0-.047-.011.145.145,0,0,0-.058.011.072.072,0,0,0-.034.031.019.019,0,0,0,0,.022.035.035,0,0,0,.018.013.1.1,0,0,0,.027.007l.029.005a.113.113,0,0,1,.02.007.013.013,0,0,1,0,.016.045.045,0,0,1-.009.011l-.013.009a.052.052,0,0,1-.018.005.094.094,0,0,1-.023,0,.06.06,0,0,1-.036-.007q-.011-.008-.005-.027h-.027Zm.433-.022a.057.057,0,0,0,.007-.06c-.009-.014-.027-.02-.054-.02a.154.154,0,0,0-.041.005.13.13,0,0,0-.036.016.132.132,0,0,0-.031.025.119.119,0,0,0-.022.031.1.1,0,0,0-.011.031.033.033,0,0,0,0,.023.036.036,0,0,0,.02.016.106.106,0,0,0,.038.005.2.2,0,0,0,.034,0,.079.079,0,0,0,.029-.011.115.115,0,0,0,.025-.014.225.225,0,0,0,.022-.02h-.025a.1.1,0,0,1-.034.025.125.125,0,0,1-.043.009.06.06,0,0,1-.027-.005.033.033,0,0,1-.014-.013.029.029,0,0,1,0-.018.051.051,0,0,1,.007-.022h.157Zm-.146-.014.016-.02.022-.016a.062.062,0,0,1,.025-.011.074.074,0,0,1,.029,0,.092.092,0,0,1,.025,0,.03.03,0,0,1,.014.011.027.027,0,0,1,0,.016.055.055,0,0,1-.007.02Z" transform="translate(131.5 -373.739)"/></g></g></g></g></svg>