<svg xmlns="http://www.w3.org/2000/svg" viewBox="0 0 136 40"><defs><style>.cls-1{fill:none;}.cls-2{fill:#38ac49;}.cls-3{fill:#e98824;}.cls-4{fill:#fff;}.cls-5{fill:#edc91a;}.cls-6{fill:#008c44;}.cls-7{fill:#f47920;}.cls-8{fill:#6d6e71;}.cls-9{fill:#b9baba;}</style></defs><g id="Layer_2" data-name="Layer 2"><g id="Layer_1-2" data-name="Layer 1"><rect class="cls-1" width="136" height="40"/><path d="M128.86,16.27l-1.93,1.59h-1l.21-.34H64.36L65.63,15h60.52l-.21-.33h1Zm-32,2L94,24h3.92l2.9-5.68ZM64,18.3,61.07,24h3.82l1.66-3.26h5l1.24-2.42Zm13.23-.06A3.2,3.2,0,0,0,74.37,20L72.3,24h2.48l2.15-4.23h3.73l-.28.55H77.31l-.79,1.57h3.06L78.51,24H81l3-5.81H77.2Zm6,4.28-.82,1.61H90a2.51,2.51,0,0,0,2.52-2.51,1.25,1.25,0,0,0-1.24-1.24H86.79l.33-.64H93l.81-1.58H87.62a3.72,3.72,0,0,0-3.37,2.22,1,1,0,0,0,.92,1.52h4.68l-.32.63H83.15Zm24.68-.62.77-1.52h-3.67a3.16,3.16,0,0,0-2.82,1.74l-.23.45a1.06,1.06,0,0,0,1,1.54H110l2.32-4.56a.94.94,0,0,0-.83-1.37h-7l-.84,1.65h6l-.29.55-1.06,2.08h-3.79l.26-.55h3.12ZM122,18.11a.9.9,0,0,1,.8,1.31l-3.15,6.19A2.93,2.93,0,0,1,117,27.22H83.67l.4.49h-.79l-1.58-1.3,1.58-1.29h.79l-.4.48H117l.86-1.68h-4.69a.93.93,0,0,1-.83-1.35l1.56-3.06a2.59,2.59,0,0,1,2.29-1.4H122m-1.87,1.52h-3.7L115,22.31h3.69Z"/><polygon class="cls-2" points="94.22 14.82 92.94 17.32 104.89 17.32 106.16 14.82 94.22 14.82"/><polygon class="cls-3" points="65.44 14.82 64.16 17.32 92.94 17.32 94.22 14.82 65.44 14.82"/><polygon class="cls-3" points="126.73 14.49 125.75 14.49 125.95 14.82 106.16 14.82 104.89 17.32 125.95 17.32 125.75 17.67 126.73 17.67 128.68 16.07 126.73 14.49"/><path class="cls-4" d="M98.53,16.92c1-.5,1.44,0,1.54.1l-.35.24a1.2,1.2,0,0,0-1.16-.09l0-.25m-.08-.71,0,.33c1.45-.74,2,0,2.11.12l.43-.27c-.37-.77-1.88-.64-2.58-.18m-.08-.71,0,.31c1.82-.81,2.75-.42,3.16.22l.44-.29c-.79-1.26-2.69-.85-3.64-.24"/><path class="cls-3" d="M98.25,14.49c2.15-1.24,4.33-1,5,.39l-.58.38c-.63-1.15-2.63-1.37-4.39-.3l0-.47m-.13-1.26.07.66c2.32-1.25,4.83-1.1,5.76.54l.83-.55c-.71-2-4.68-2-6.66-.65"/><path class="cls-3" d="M71.32,20.53h-5L64.7,23.8H60.88l2.89-5.69h8.79ZM77,18a3.17,3.17,0,0,0-2.82,1.73l-2.07,4.07h2.47l2.16-4.22h3.72l-.27.54H77.12l-.8,1.58h3.07l-1.07,2.1H80.8l3-5.81H77Zm15.8,1.5L93.62,18H87.43a3.75,3.75,0,0,0-3.38,2.22A1,1,0,0,0,85,21.69h4.67l-.32.64H83l-.82,1.6h7.63a2.51,2.51,0,0,0,2.51-2.51A1.25,1.25,0,0,0,91,20.17H86.6l.32-.63Z"/><path class="cls-2" d="M97.69,23.78H93.76l2.9-5.68h3.92ZM111.24,18h-7l-.83,1.65h6l-.29.55-1,2.09h-3.8l.27-.56h3.12l.78-1.51h-3.67a3.17,3.17,0,0,0-2.82,1.73l-.24.45a1.06,1.06,0,0,0,1,1.54h7.12l2.33-4.56a1,1,0,0,0-.86-1.38m10.54-.05a.88.88,0,0,1,.79,1.3l-3.14,6.2A3,3,0,0,1,116.81,27H83.47l.42.48h-.81L81.5,26.23l1.58-1.29h.81l-.42.49h33.38l.85-1.68H113a.94.94,0,0,1-.83-1.36l1.56-3.05a2.57,2.57,0,0,1,2.29-1.4h5.75m-1.89,1.5H116.2l-1.37,2.69h3.69Z"/><path class="cls-5" d="M109,16.27h-2.3a.11.11,0,0,1-.09-.16l.06-.12a.18.18,0,0,1,.17-.1h2.3a.11.11,0,0,1,.09.16l-.06.12a.17.17,0,0,1-.17.1m5.17,0a.17.17,0,0,0,.17-.11l.06-.12a.11.11,0,0,0-.09-.16H112a.23.23,0,0,0-.19.1l-.06.12a.12.12,0,0,0,.1.16h2.3m5.18,0a.19.19,0,0,0,.18-.11l.06-.12a.11.11,0,0,0-.09-.16h-2.3a.2.2,0,0,0-.18.1l-.06.12a.11.11,0,0,0,.09.16h2.3m5.17,0a.19.19,0,0,0,.18-.11l.06-.12a.11.11,0,0,0-.09-.16h-2.29a.2.2,0,0,0-.18.1l0,.12a.11.11,0,0,0,.09.16h2.28M91.18,26.37a.14.14,0,0,0,.13-.09l0-.08s0-.11-.07-.11H89.65a.13.13,0,0,0-.12.08l0,.08a.09.09,0,0,0,.07.12h1.63m7.85,0a.15.15,0,0,0,.13-.09l0-.08s0-.11-.07-.11H97.5a.14.14,0,0,0-.13.08l0,.08a.09.09,0,0,0,.07.12H99m7.86,0a.15.15,0,0,0,.13-.09l0-.08s0-.11-.07-.11h-1.62a.14.14,0,0,0-.13.08l0,.08a.09.09,0,0,0,.07.12h1.63m7.85,0a.15.15,0,0,0,.13-.09l0-.08a.08.08,0,0,0-.07-.11h-1.62a.14.14,0,0,0-.13.08l0,.08a.08.08,0,0,0,.07.12h1.63"/><path d="M59.41,26.85l.66-1.3h1.17l-.06.11h-1l-.24.46h.9l-.06.11h-.9l-.27.51h1l-.05.1H59.41Zm2.27-.53c-.32,0-.51.13-.59.28a.13.13,0,0,0,0,.11s0,.06,0,.08.07,0,.11.05h.15a1.27,1.27,0,0,0,.28,0,1.69,1.69,0,0,0,.28-.12s0,0,0,.05v0a.05.05,0,0,0,0,0h.23l.05-.08c-.07,0-.12,0-.13,0s0,0,0-.08l.26-.51a.5.5,0,0,0,0-.14.1.1,0,0,0-.06-.09.22.22,0,0,0-.12-.05h-.39a.55.55,0,0,0-.18.06.42.42,0,0,0-.16.09.35.35,0,0,0-.13.14h.15c0-.05.06-.07.09-.11L61.7,26l.13,0H62a.3.3,0,0,1,.22.06s0,.08,0,.14a.1.1,0,0,0,0,.05s0,0-.07.05l-.1,0h-.11Zm.35.18a.2.2,0,0,1-.1.12.71.71,0,0,1-.15.08l-.17.05h-.28s-.06,0-.07,0a.07.07,0,0,1,0-.06.07.07,0,0,1,0-.06.28.28,0,0,1,.16-.14.78.78,0,0,1,.29-.06h.19a1.55,1.55,0,0,0,.21,0Zm.79.05a.3.3,0,0,0,0,.13.21.21,0,0,0,0,.1.24.24,0,0,0,.12.07l.19,0h.22l.18,0,.15-.08a.41.41,0,0,0,.11-.12.14.14,0,0,0,0-.14.28.28,0,0,0-.12-.08l-.17,0-.18,0a.34.34,0,0,1-.12-.06.06.06,0,0,1,0-.09c0-.05.06-.08.13-.12a.57.57,0,0,1,.24,0,.35.35,0,0,1,.2,0,.12.12,0,0,1,0,.15H64a.2.2,0,0,0,0-.23.52.52,0,0,0-.3-.07,1.06,1.06,0,0,0-.37.07.54.54,0,0,0-.22.2.14.14,0,0,0,0,.14.23.23,0,0,0,.12.08.61.61,0,0,0,.17,0l.19,0a.33.33,0,0,1,.12.05s0,.05,0,.1a.15.15,0,0,1,0,.07l-.08.06a.42.42,0,0,1-.12,0h-.15a.41.41,0,0,1-.23,0,.16.16,0,0,1,0-.18h-.16Zm1.29.65h.12l.14,0,.14-.08.15-.12.16-.16.94-.92H65.6l-.81.8v-.8h-.16v.94l-.08.07-.08.08-.11.07a.21.21,0,0,1-.11,0H64.2a.07.07,0,0,1-.06,0Zm3.27-.44h-.19s0,0,0,0a.09.09,0,0,1,0,0s0,0,0-.06l.32-.64h.24l0-.09h-.23l.13-.25h-.15l-.13.25h-.18l0,.09h.17l-.34.69c0,.07-.05.11,0,.15a.26.26,0,0,0,.15,0h.19Zm1.22.11a1,1,0,0,0,.25,0,.94.94,0,0,0,.23-.1l.2-.15a.9.9,0,0,0,.14-.2.51.51,0,0,0,.06-.2.16.16,0,0,0,0-.15.2.2,0,0,0-.12-.1.57.57,0,0,0-.25,0,.9.9,0,0,0-.28,0,.82.82,0,0,0-.24.1.68.68,0,0,0-.18.15.66.66,0,0,0-.14.2.38.38,0,0,0-.06.21.21.21,0,0,0,0,.15.3.3,0,0,0,.13.09l.25,0m.68-.49a1,1,0,0,1-.1.15l-.14.12-.18.1a.73.73,0,0,1-.22,0l-.17,0a.18.18,0,0,1-.09-.08.19.19,0,0,1,0-.13,1.66,1.66,0,0,1,.06-.16.53.53,0,0,1,.11-.15.58.58,0,0,1,.14-.13.91.91,0,0,1,.17-.09A.52.52,0,0,1,69,26a.3.3,0,0,1,.18,0,.2.2,0,0,1,.1.08.27.27,0,0,1,0,.13.53.53,0,0,1,0,.15m3.46-.45a.38.38,0,0,0,0-.18.23.23,0,0,0-.08-.13l-.16-.08a.9.9,0,0,0-.24,0,2.07,2.07,0,0,0-.35,0,1.52,1.52,0,0,0-.32.12,1.21,1.21,0,0,0-.28.21,1.07,1.07,0,0,0-.22.31.73.73,0,0,0-.09.26.28.28,0,0,0,0,.22.39.39,0,0,0,.16.15.93.93,0,0,0,.32.05,1.61,1.61,0,0,0,.33,0,1.16,1.16,0,0,0,.28-.1l.22-.15a1.41,1.41,0,0,0,.17-.18h-.17a1,1,0,0,1-.15.14l-.18.12-.19.07a.82.82,0,0,1-.22,0,.56.56,0,0,1-.28-.05.31.31,0,0,1-.13-.12.4.4,0,0,1,0-.19.9.9,0,0,1,.08-.21.78.78,0,0,1,.15-.22.91.91,0,0,1,.21-.18.85.85,0,0,1,.25-.13.79.79,0,0,1,.3-.05.65.65,0,0,1,.33.07.21.21,0,0,1,.07.23h.17Zm.49.46a.75.75,0,0,1,.09-.15l.13-.13a.54.54,0,0,1,.17-.08.41.41,0,0,1,.22,0l.06-.12a.64.64,0,0,0-.28.05.65.65,0,0,0-.23.15h0l.09-.18h-.15l-.38.93h0Zm1.94,0a.36.36,0,0,1-.1.14.55.55,0,0,1-.14.12.46.46,0,0,1-.16.07l-.18,0a.26.26,0,0,1-.22-.07.18.18,0,0,1,0-.18l.31-.62h-.15l-.31.62a.24.24,0,0,0,0,.13c0,.05,0,.09,0,.11a.21.21,0,0,0,.11.07.5.5,0,0,0,.19,0h.15l.13,0,.12,0,.09-.05-.07.13h.15l.48-.93h-.14Zm1.48-.7.09-.17h-.17l-.08.17Zm-.59,1.13.48-.92h-.15l-.48.92Zm.71-.3a.3.3,0,0,0,0,.13.14.14,0,0,0,0,.1.24.24,0,0,0,.12.07l.18,0h.22l.19,0,.15-.08a.28.28,0,0,0,.1-.12.13.13,0,0,0,0-.14.31.31,0,0,0-.11-.08l-.17,0-.18,0a.34.34,0,0,1-.12-.06.06.06,0,0,1,0-.09c0-.05.06-.08.13-.12a.57.57,0,0,1,.24,0,.35.35,0,0,1,.2,0,.12.12,0,0,1,0,.15h.15a.2.2,0,0,0,0-.23.52.52,0,0,0-.3-.07,1.06,1.06,0,0,0-.37.07.54.54,0,0,0-.22.2.14.14,0,0,0,0,.14.23.23,0,0,0,.12.08.61.61,0,0,0,.17,0l.19,0a.33.33,0,0,1,.12.05s0,.05,0,.1l-.06.07-.08.06a.42.42,0,0,1-.12,0h-.15a.41.41,0,0,1-.23,0,.16.16,0,0,1,0-.18h-.17Zm2.78-.14a.36.36,0,0,0,0-.38c0-.09-.17-.13-.34-.13a.77.77,0,0,0-.27,0,.67.67,0,0,0-.23.1,1,1,0,0,0-.2.16.9.9,0,0,0-.14.2,1.59,1.59,0,0,0-.07.2.2.2,0,0,0,0,.15.24.24,0,0,0,.12.1.76.76,0,0,0,.25,0,1.46,1.46,0,0,0,.22,0,.36.36,0,0,0,.18-.07.56.56,0,0,0,.17-.09.8.8,0,0,0,.13-.13h-.16a.76.76,0,0,1-.22.17.87.87,0,0,1-.28.05.43.43,0,0,1-.17,0,.18.18,0,0,1-.09-.08.17.17,0,0,1,0-.12.48.48,0,0,1,.05-.14h1Zm-.94-.09a1.13,1.13,0,0,0,.1-.13l.14-.1A.36.36,0,0,1,79,26a.34.34,0,0,1,.18,0,.57.57,0,0,1,.16,0,.18.18,0,0,1,.1.07.18.18,0,0,1,0,.1.27.27,0,0,1,0,.13Z"/><path d="M128.86,16.27l-1.93,1.59h-1l.21-.34H64.36L65.63,15h60.52l-.21-.33h1Zm-32,2L94,24h3.92l2.9-5.68ZM64,18.3,61.07,24h3.82l1.66-3.26h5l1.24-2.42Zm13.23-.06A3.2,3.2,0,0,0,74.37,20L72.3,24h2.48l2.15-4.23h3.73l-.28.55H77.31l-.79,1.57h3.06L78.51,24H81l3-5.81H77.2Zm6,4.28-.82,1.61H90a2.51,2.51,0,0,0,2.52-2.51,1.25,1.25,0,0,0-1.24-1.24H86.79l.33-.64H93l.81-1.58H87.62a3.72,3.72,0,0,0-3.37,2.22,1,1,0,0,0,.92,1.52h4.68l-.32.63H83.15Zm24.68-.62.77-1.52h-3.67a3.16,3.16,0,0,0-2.82,1.74l-.23.45a1.06,1.06,0,0,0,1,1.54H110l2.32-4.56a.94.94,0,0,0-.83-1.37h-7l-.84,1.65h6l-.29.55-1.06,2.08h-3.79l.26-.55h3.12ZM122,18.11a.9.9,0,0,1,.8,1.31l-3.15,6.19A2.93,2.93,0,0,1,117,27.22H83.67l.4.49h-.79l-1.58-1.3,1.58-1.29h.79l-.4.48H117l.86-1.68h-4.69a.93.93,0,0,1-.83-1.35l1.56-3.06a2.59,2.59,0,0,1,2.29-1.4H122m-1.87,1.52h-3.7L115,22.31h3.69Z"/><polygon class="cls-2" points="94.22 14.82 92.94 17.32 104.89 17.32 106.16 14.82 94.22 14.82"/><polygon class="cls-3" points="65.44 14.82 64.16 17.32 92.94 17.32 94.22 14.82 65.44 14.82"/><polygon class="cls-3" points="126.73 14.49 125.75 14.49 125.95 14.82 106.16 14.82 104.89 17.32 125.95 17.32 125.75 17.67 126.73 17.67 128.68 16.07 126.73 14.49"/><path class="cls-4" d="M98.53,16.92c1-.5,1.44,0,1.54.1l-.35.24a1.2,1.2,0,0,0-1.16-.09l0-.25m-.08-.71,0,.33c1.45-.74,2,0,2.11.12l.43-.27c-.37-.77-1.88-.64-2.58-.18m-.08-.71,0,.31c1.82-.81,2.75-.42,3.16.22l.44-.29c-.79-1.26-2.69-.85-3.64-.24"/><path class="cls-3" d="M98.25,14.49c2.15-1.24,4.33-1,5,.39l-.58.38c-.63-1.15-2.63-1.37-4.39-.3l0-.47m-.13-1.26.07.66c2.32-1.25,4.83-1.1,5.76.54l.83-.55c-.71-2-4.68-2-6.66-.65"/><path class="cls-3" d="M71.32,20.53h-5L64.7,23.8H60.88l2.89-5.69h8.79ZM77,18a3.17,3.17,0,0,0-2.82,1.73l-2.07,4.07h2.47l2.16-4.22h3.72l-.27.54H77.12l-.8,1.58h3.07l-1.07,2.1H80.8l3-5.81H77Zm15.8,1.5L93.62,18H87.43a3.75,3.75,0,0,0-3.38,2.22A1,1,0,0,0,85,21.69h4.67l-.32.64H83l-.82,1.6h7.63a2.51,2.51,0,0,0,2.51-2.51A1.25,1.25,0,0,0,91,20.17H86.6l.32-.63Z"/><path class="cls-2" d="M97.69,23.78H93.76l2.9-5.68h3.92ZM111.24,18h-7l-.83,1.65h6l-.29.55-1,2.09h-3.8l.27-.56h3.12l.78-1.51h-3.67a3.17,3.17,0,0,0-2.82,1.73l-.24.45a1.06,1.06,0,0,0,1,1.54h7.12l2.33-4.56a1,1,0,0,0-.86-1.38m10.54-.05a.88.88,0,0,1,.79,1.3l-3.14,6.2A3,3,0,0,1,116.81,27H83.47l.42.48h-.81L81.5,26.23l1.58-1.29h.81l-.42.49h33.38l.85-1.68H113a.94.94,0,0,1-.83-1.36l1.56-3.05a2.57,2.57,0,0,1,2.29-1.4h5.75m-1.89,1.5H116.2l-1.37,2.69h3.69Z"/><path class="cls-5" d="M109,16.27h-2.3a.11.11,0,0,1-.09-.16l.06-.12a.18.18,0,0,1,.17-.1h2.3a.11.11,0,0,1,.09.16l-.06.12a.17.17,0,0,1-.17.1m5.17,0a.17.17,0,0,0,.17-.11l.06-.12a.11.11,0,0,0-.09-.16H112a.23.23,0,0,0-.19.1l-.06.12a.12.12,0,0,0,.1.16h2.3m5.18,0a.19.19,0,0,0,.18-.11l.06-.12a.11.11,0,0,0-.09-.16h-2.3a.2.2,0,0,0-.18.1l-.06.12a.11.11,0,0,0,.09.16h2.3m5.17,0a.19.19,0,0,0,.18-.11l.06-.12a.11.11,0,0,0-.09-.16h-2.29a.2.2,0,0,0-.18.1l0,.12a.11.11,0,0,0,.09.16h2.28M91.18,26.37a.14.14,0,0,0,.13-.09l0-.08s0-.11-.07-.11H89.65a.13.13,0,0,0-.12.08l0,.08a.09.09,0,0,0,.07.12h1.63m7.85,0a.15.15,0,0,0,.13-.09l0-.08s0-.11-.07-.11H97.5a.14.14,0,0,0-.13.08l0,.08a.09.09,0,0,0,.07.12H99m7.86,0a.15.15,0,0,0,.13-.09l0-.08s0-.11-.07-.11h-1.62a.14.14,0,0,0-.13.08l0,.08a.09.09,0,0,0,.07.12h1.63m7.85,0a.15.15,0,0,0,.13-.09l0-.08a.08.08,0,0,0-.07-.11h-1.62a.14.14,0,0,0-.13.08l0,.08a.08.08,0,0,0,.07.12h1.63"/><path d="M59.41,26.85l.66-1.3h1.17l-.06.11h-1l-.24.46h.9l-.06.11h-.9l-.27.51h1l-.05.1H59.41Zm2.27-.53c-.32,0-.51.13-.59.28a.13.13,0,0,0,0,.11s0,.06,0,.08.07,0,.11.05h.15a1.27,1.27,0,0,0,.28,0,1.69,1.69,0,0,0,.28-.12s0,0,0,.05v0a.05.05,0,0,0,0,0h.23l.05-.08c-.07,0-.12,0-.13,0s0,0,0-.08l.26-.51a.5.5,0,0,0,0-.14.1.1,0,0,0-.06-.09.22.22,0,0,0-.12-.05h-.39a.55.55,0,0,0-.18.06.42.42,0,0,0-.16.09.35.35,0,0,0-.13.14h.15c0-.05.06-.07.09-.11L61.7,26l.13,0H62a.3.3,0,0,1,.22.06s0,.08,0,.14a.1.1,0,0,0,0,.05s0,0-.07.05l-.1,0h-.11Zm.35.18a.2.2,0,0,1-.1.12.71.71,0,0,1-.15.08l-.17.05h-.28s-.06,0-.07,0a.07.07,0,0,1,0-.06.07.07,0,0,1,0-.06.28.28,0,0,1,.16-.14.78.78,0,0,1,.29-.06h.19a1.55,1.55,0,0,0,.21,0Zm.79.05a.3.3,0,0,0,0,.13.21.21,0,0,0,0,.1.24.24,0,0,0,.12.07l.19,0h.22l.18,0,.15-.08a.41.41,0,0,0,.11-.12.14.14,0,0,0,0-.14.28.28,0,0,0-.12-.08l-.17,0-.18,0a.34.34,0,0,1-.12-.06.06.06,0,0,1,0-.09c0-.05.06-.08.13-.12a.57.57,0,0,1,.24,0,.35.35,0,0,1,.2,0,.12.12,0,0,1,0,.15H64a.2.2,0,0,0,0-.23.52.52,0,0,0-.3-.07,1.06,1.06,0,0,0-.37.07.54.54,0,0,0-.22.2.14.14,0,0,0,0,.14.23.23,0,0,0,.12.08.61.61,0,0,0,.17,0l.19,0a.33.33,0,0,1,.12.05s0,.05,0,.1a.15.15,0,0,1,0,.07l-.08.06a.42.42,0,0,1-.12,0h-.15a.41.41,0,0,1-.23,0,.16.16,0,0,1,0-.18h-.16Zm1.29.65h.12l.14,0,.14-.08.15-.12.16-.16.94-.92H65.6l-.81.8v-.8h-.16v.94l-.08.07-.08.08-.11.07a.21.21,0,0,1-.11,0H64.2a.07.07,0,0,1-.06,0Zm3.27-.44h-.19s0,0,0,0a.09.09,0,0,1,0,0s0,0,0-.06l.32-.64h.24l0-.09h-.23l.13-.25h-.15l-.13.25h-.18l0,.09h.17l-.34.69c0,.07-.05.11,0,.15a.26.26,0,0,0,.15,0h.19Zm1.22.11a1,1,0,0,0,.25,0,.94.94,0,0,0,.23-.1l.2-.15a.9.9,0,0,0,.14-.2.51.51,0,0,0,.06-.2.16.16,0,0,0,0-.15.2.2,0,0,0-.12-.1.57.57,0,0,0-.25,0,.9.9,0,0,0-.28,0,.82.82,0,0,0-.24.1.68.68,0,0,0-.18.15.66.66,0,0,0-.14.2.38.38,0,0,0-.06.21.21.21,0,0,0,0,.15.3.3,0,0,0,.13.09l.25,0m.68-.49a1,1,0,0,1-.1.15l-.14.12-.18.1a.73.73,0,0,1-.22,0l-.17,0a.18.18,0,0,1-.09-.08.19.19,0,0,1,0-.13,1.66,1.66,0,0,1,.06-.16.53.53,0,0,1,.11-.15.58.58,0,0,1,.14-.13.91.91,0,0,1,.17-.09A.52.52,0,0,1,69,26a.3.3,0,0,1,.18,0,.2.2,0,0,1,.1.08.27.27,0,0,1,0,.13.53.53,0,0,1,0,.15m3.46-.45a.38.38,0,0,0,0-.18.23.23,0,0,0-.08-.13l-.16-.08a.9.9,0,0,0-.24,0,2.07,2.07,0,0,0-.35,0,1.52,1.52,0,0,0-.32.12,1.21,1.21,0,0,0-.28.21,1.07,1.07,0,0,0-.22.31.73.73,0,0,0-.09.26.28.28,0,0,0,0,.22.39.39,0,0,0,.16.15.93.93,0,0,0,.32.05,1.61,1.61,0,0,0,.33,0,1.16,1.16,0,0,0,.28-.1l.22-.15a1.41,1.41,0,0,0,.17-.18h-.17a1,1,0,0,1-.15.14l-.18.12-.19.07a.82.82,0,0,1-.22,0,.56.56,0,0,1-.28-.05.31.31,0,0,1-.13-.12.4.4,0,0,1,0-.19.9.9,0,0,1,.08-.21.78.78,0,0,1,.15-.22.91.91,0,0,1,.21-.18.85.85,0,0,1,.25-.13.79.79,0,0,1,.3-.05.65.65,0,0,1,.33.07.21.21,0,0,1,.07.23h.17Zm.49.46a.75.75,0,0,1,.09-.15l.13-.13a.54.54,0,0,1,.17-.08.41.41,0,0,1,.22,0l.06-.12a.64.64,0,0,0-.28.05.65.65,0,0,0-.23.15h0l.09-.18h-.15l-.38.93h0Zm1.94,0a.36.36,0,0,1-.1.14.55.55,0,0,1-.14.12.46.46,0,0,1-.16.07l-.18,0a.26.26,0,0,1-.22-.07.18.18,0,0,1,0-.18l.31-.62h-.15l-.31.62a.24.24,0,0,0,0,.13c0,.05,0,.09,0,.11a.21.21,0,0,0,.11.07.5.5,0,0,0,.19,0h.15l.13,0,.12,0,.09-.05-.07.13h.15l.48-.93h-.14Zm1.48-.7.09-.17h-.17l-.08.17Zm-.59,1.13.48-.92h-.15l-.48.92Zm.71-.3a.3.3,0,0,0,0,.13.14.14,0,0,0,0,.1.24.24,0,0,0,.12.07l.18,0h.22l.19,0,.15-.08a.28.28,0,0,0,.1-.12.13.13,0,0,0,0-.14.31.31,0,0,0-.11-.08l-.17,0-.18,0a.34.34,0,0,1-.12-.06.06.06,0,0,1,0-.09c0-.05.06-.08.13-.12a.57.57,0,0,1,.24,0,.35.35,0,0,1,.2,0,.12.12,0,0,1,0,.15h.15a.2.2,0,0,0,0-.23.52.52,0,0,0-.3-.07,1.06,1.06,0,0,0-.37.07.54.54,0,0,0-.22.2.14.14,0,0,0,0,.14.23.23,0,0,0,.12.08.61.61,0,0,0,.17,0l.19,0a.33.33,0,0,1,.12.05s0,.05,0,.1l-.06.07-.08.06a.42.42,0,0,1-.12,0h-.15a.41.41,0,0,1-.23,0,.16.16,0,0,1,0-.18h-.17Zm2.78-.14a.36.36,0,0,0,0-.38c0-.09-.17-.13-.34-.13a.77.77,0,0,0-.27,0,.67.67,0,0,0-.23.1,1,1,0,0,0-.2.16.9.9,0,0,0-.14.2,1.59,1.59,0,0,0-.07.2.2.2,0,0,0,0,.15.24.24,0,0,0,.12.1.76.76,0,0,0,.25,0,1.46,1.46,0,0,0,.22,0,.36.36,0,0,0,.18-.07.56.56,0,0,0,.17-.09.8.8,0,0,0,.13-.13h-.16a.76.76,0,0,1-.22.17.87.87,0,0,1-.28.05.43.43,0,0,1-.17,0,.18.18,0,0,1-.09-.08.17.17,0,0,1,0-.12.48.48,0,0,1,.05-.14h1Zm-.94-.09a1.13,1.13,0,0,0,.1-.13l.14-.1A.36.36,0,0,1,79,26a.34.34,0,0,1,.18,0,.57.57,0,0,1,.16,0,.18.18,0,0,1,.1.07.18.18,0,0,1,0,.1.27.27,0,0,1,0,.13Z"/><polygon class="cls-6" points="50.34 15.27 52.16 18.88 48.35 22.47 50.34 15.27"/><polygon class="cls-7" points="49.08 15.27 50.88 18.88 47.08 22.47 49.08 15.27"/><path class="cls-8" d="M16.23,22.55l-5.78-4.72-1.3,4.7H7.72l2-7.24L15.5,20l1.31-4.73h1.43ZM46,21.09h-7.2L40,16.7h7.2l.18-.69a.58.58,0,0,0-.06-.52.52.52,0,0,0-.46-.21h-7.2a.91.91,0,0,0-.57.21,1,1,0,0,0-.34.52l-1.6,5.78a.55.55,0,0,0,.06.51.52.52,0,0,0,.45.21h7.2a1,1,0,0,0,.91-.72Zm-16.9-5.81-.39,1.4h3.63l-1.61,5.81h1.44l1.61-5.81h3.55l.38-1.4Zm-1.89,0H19.91a1.08,1.08,0,0,0-.45.21,1,1,0,0,0-.35.52l-1.6,5.78a.59.59,0,0,0,.06.51.52.52,0,0,0,.45.21h7.2a.91.91,0,0,0,.57-.21,1,1,0,0,0,.35-.51l.19-.69H19.14l.41-1.49h5.76l.4-1.41H19.94l.42-1.5h7.19l.19-.69a.61.61,0,0,0,0-.52.54.54,0,0,0-.47-.22"/><path class="cls-8" d="M7.14,24.66l.37-1.31.64.94.24-.86h.18l-.37,1.3-.63-.93-.25.86Zm2.52,0h.21l-.22-1.31-1,1.31h.19l.22-.3h.53Zm-.45-.48.31-.41.06.41Zm1.95-.57,0-.18h-.75l0,.18h.28l-.29,1.05h.19l.29-1.05Zm.49-.18-.34,1.23h.19l.35-1.23Zm.55.6a.45.45,0,0,0,.08.48.46.46,0,0,0,.38.16.81.81,0,0,0,.51-.18.8.8,0,0,0,.31-.46.5.5,0,0,0-.05-.45.48.48,0,0,0-.4-.18.86.86,0,0,0-.51.18.81.81,0,0,0-.32.45m.18,0a.77.77,0,0,1,.22-.32.58.58,0,0,1,.36-.14.34.34,0,0,1,.29.14.36.36,0,0,1,0,.32.69.69,0,0,1-.22.33.59.59,0,0,1-.36.13.34.34,0,0,1-.33-.46m1.64.63.24-.86.64.93.35-1.3h-.18l-.24.86-.64-.94-.36,1.31Zm2.33,0h.21l-.22-1.31-1,1.31h.2l.22-.3h.52Zm-.44-.48.32-.41.07.41Zm1.44-.75L17,24.66h.55l0-.17h-.36l.29-1.06Zm2.48,0h-.68l-.34,1.23h.68l.05-.17h-.49l.12-.41h.47l.05-.17h-.48l.08-.29h.49Zm.53,0L20,24.66h.55l0-.17h-.36l.3-1.06Zm1.69,0h-.67L21,24.66h.67l.05-.17h-.49l.12-.41h.47l0-.17h-.48l.08-.29H22Zm1.42.06a.5.5,0,0,0-.29-.09.82.82,0,0,0-.55.22.92.92,0,0,0-.28.41.55.55,0,0,0,.06.46.46.46,0,0,0,.39.18.83.83,0,0,0,.36-.09l.07-.22-.1.07-.1,0a.35.35,0,0,1-.17,0,.33.33,0,0,1-.28-.13.35.35,0,0,1,0-.32.53.53,0,0,1,.22-.33.56.56,0,0,1,.36-.14.37.37,0,0,1,.28.14l.06-.24m1.11.12.05-.18h-.74l-.05.18h.28l-.29,1.05H24l.29-1.05Zm.73.52a.43.43,0,0,0,.23-.12.44.44,0,0,0,.14-.22.26.26,0,0,0,0-.27.5.5,0,0,0-.33-.09h-.22l-.34,1.23h.18l.14-.5h0l.21.5h.23l-.23-.53m-.08-.52h.07c.18,0,.24.05.2.18s-.14.2-.33.2h-.05Zm.87.42a.49.49,0,0,0,.07.48.46.46,0,0,0,.38.16.84.84,0,0,0,.51-.18.8.8,0,0,0,.31-.46.5.5,0,0,0-.05-.45.48.48,0,0,0-.4-.18.86.86,0,0,0-.51.18,1,1,0,0,0-.31.45m.19,0a.62.62,0,0,1,.22-.32.56.56,0,0,1,.35-.14.34.34,0,0,1,.29.14.39.39,0,0,1,0,.32.69.69,0,0,1-.22.33.57.57,0,0,1-.36.13.36.36,0,0,1-.28-.13.33.33,0,0,1,0-.33m1.63.63.24-.86.64.93.36-1.3H29l-.24.86-.64-.94-.37,1.31Zm1.83-1.23-.35,1.23h.18l.35-1.23Zm1.65.06a.49.49,0,0,0-.3-.09.8.8,0,0,0-.55.22.76.76,0,0,0-.27.41.55.55,0,0,0,.06.46.46.46,0,0,0,.39.18.83.83,0,0,0,.36-.09l.07-.22-.11.07-.09,0a.29.29,0,0,1-.17,0,.33.33,0,0,1-.28-.13.35.35,0,0,1,0-.32.57.57,0,0,1,.22-.33.56.56,0,0,1,.35-.14.37.37,0,0,1,.29.14l.06-.24m1.91.12,0-.18h-.74l0,.18h.28l-.29,1.05h.18L33,23.61Zm.23.42a.52.52,0,0,0,.07.48.48.48,0,0,0,.38.16.84.84,0,0,0,.51-.18.81.81,0,0,0,.32-.46.58.58,0,0,0-.06-.45.46.46,0,0,0-.39-.18.84.84,0,0,0-.51.18,1.07,1.07,0,0,0-.32.45m.19,0a.62.62,0,0,1,.22-.32.56.56,0,0,1,.36-.14.34.34,0,0,1,.29.14.39.39,0,0,1,0,.32.57.57,0,0,1-.22.33.55.55,0,0,1-.36.13.34.34,0,0,1-.27-.13.33.33,0,0,1-.05-.33m1.79-.6-.34,1.23h.54l.05-.17h-.36l.29-1.06Zm1,0-.34,1.23h.55l0-.17h-.35l.29-1.06Zm2.7.06a.55.55,0,0,0-.29-.09.85.85,0,0,0-.56.22.74.74,0,0,0-.26.41.55.55,0,0,0,.05.46.48.48,0,0,0,.4.18.87.87,0,0,0,.36-.09l0-.22-.1.07-.09,0a.34.34,0,0,1-.18,0,.31.31,0,0,1-.27-.13.33.33,0,0,1,0-.32.69.69,0,0,1,.22-.33.58.58,0,0,1,.36-.14.37.37,0,0,1,.29.14l.06-.24m.3.54a.46.46,0,0,0,.45.64.84.84,0,0,0,.51-.18A.8.8,0,0,0,40.8,24a.47.47,0,0,0-.06-.45.46.46,0,0,0-.39-.18.86.86,0,0,0-.51.18,1,1,0,0,0-.31.45m.19,0a.77.77,0,0,1,.22-.32.61.61,0,0,1,.36-.14.34.34,0,0,1,.29.14.36.36,0,0,1,0,.32.64.64,0,0,1-.23.33.59.59,0,0,1-.36.13.33.33,0,0,1-.32-.46m1.79-.6-.35,1.23h.54l0-.17h-.36l.29-1.06Zm1,0-.35,1.23h.54l.05-.17h-.36l.29-1.06Zm1.69,0h-.68l-.34,1.23h.68l0-.17h-.5l.11-.41H44l0-.17h-.48l.08-.29h.49Zm1.41.06a.52.52,0,0,0-.29-.09.85.85,0,0,0-.56.22.74.74,0,0,0-.26.41.52.52,0,0,0,.06.46.46.46,0,0,0,.39.18.87.87,0,0,0,.36-.09l.07-.22-.11.07-.09,0a.38.38,0,0,1-.17,0,.33.33,0,0,1-.28-.13.36.36,0,0,1,0-.32.69.69,0,0,1,.22-.33.61.61,0,0,1,.36-.14.37.37,0,0,1,.29.14l.05-.24m1.12.12,0-.18h-.74l-.05.18h.28L46,24.66h.18l.29-1.05Zm.5-.18-.35,1.23h.19l.34-1.23Zm.54.6a.52.52,0,0,0,.07.48.48.48,0,0,0,.38.16.84.84,0,0,0,.51-.18.81.81,0,0,0,.32-.46.58.58,0,0,0-.06-.45.46.46,0,0,0-.4-.18.83.83,0,0,0-.5.18.86.86,0,0,0-.32.45M48,24a.66.66,0,0,1,.58-.46.33.33,0,0,1,.32.46.55.55,0,0,1-.23.33.57.57,0,0,1-.36.13.37.37,0,0,1-.28-.13A.39.39,0,0,1,48,24m1.63.63.24-.86.64.93.37-1.3h-.18l-.25.86-.63-.94-.37,1.31Z"/><polygon class="cls-6" points="50.34 15.27 52.16 18.88 48.35 22.47 50.34 15.27"/><polygon class="cls-7" points="49.08 15.27 50.88 18.88 47.08 22.47 49.08 15.27"/><path class="cls-8" d="M16.23,22.55l-5.78-4.72-1.3,4.7H7.72l2-7.24L15.5,20l1.31-4.73h1.43ZM46,21.09h-7.2L40,16.7h7.2l.18-.69a.58.58,0,0,0-.06-.52.52.52,0,0,0-.46-.21h-7.2a.91.91,0,0,0-.57.21,1,1,0,0,0-.34.52l-1.6,5.78a.55.55,0,0,0,.06.51.52.52,0,0,0,.45.21h7.2a1,1,0,0,0,.91-.72Zm-16.9-5.81-.39,1.4h3.63l-1.61,5.81h1.44l1.61-5.81h3.55l.38-1.4Zm-1.89,0H19.91a1.08,1.08,0,0,0-.45.21,1,1,0,0,0-.35.52l-1.6,5.78a.59.59,0,0,0,.06.51.52.52,0,0,0,.45.21h7.2a.91.91,0,0,0,.57-.21,1,1,0,0,0,.35-.51l.19-.69H19.14l.41-1.49h5.76l.4-1.41H19.94l.42-1.5h7.19l.19-.69a.61.61,0,0,0,0-.52.54.54,0,0,0-.47-.22"/><path class="cls-8" d="M7.14,24.66l.37-1.31.64.94.24-.86h.18l-.37,1.3-.63-.93-.25.86Zm2.52,0h.21l-.22-1.31-1,1.31h.19l.22-.3h.53Zm-.45-.48.31-.41.06.41Zm1.95-.57,0-.18h-.75l0,.18h.28l-.29,1.05h.19l.29-1.05Zm.49-.18-.34,1.23h.19l.35-1.23Zm.55.6a.45.45,0,0,0,.08.48.46.46,0,0,0,.38.16.81.81,0,0,0,.51-.18.8.8,0,0,0,.31-.46.5.5,0,0,0-.05-.45.48.48,0,0,0-.4-.18.86.86,0,0,0-.51.18.81.81,0,0,0-.32.45m.18,0a.77.77,0,0,1,.22-.32.58.58,0,0,1,.36-.14.34.34,0,0,1,.29.14.36.36,0,0,1,0,.32.69.69,0,0,1-.22.33.59.59,0,0,1-.36.13.34.34,0,0,1-.33-.46m1.64.63.24-.86.64.93.35-1.3h-.18l-.24.86-.64-.94-.36,1.31Zm2.33,0h.21l-.22-1.31-1,1.31h.2l.22-.3h.52Zm-.44-.48.32-.41.07.41Zm1.44-.75L17,24.66h.55l0-.17h-.36l.29-1.06Zm2.48,0h-.68l-.34,1.23h.68l.05-.17h-.49l.12-.41h.47l.05-.17h-.48l.08-.29h.49Zm.53,0L20,24.66h.55l0-.17h-.36l.3-1.06Zm1.69,0h-.67L21,24.66h.67l.05-.17h-.49l.12-.41h.47l0-.17h-.48l.08-.29H22Zm1.42.06a.5.5,0,0,0-.29-.09.82.82,0,0,0-.55.22.92.92,0,0,0-.28.41.55.55,0,0,0,.06.46.46.46,0,0,0,.39.18.83.83,0,0,0,.36-.09l.07-.22-.1.07-.1,0a.35.35,0,0,1-.17,0,.33.33,0,0,1-.28-.13.35.35,0,0,1,0-.32.53.53,0,0,1,.22-.33.56.56,0,0,1,.36-.14.37.37,0,0,1,.28.14l.06-.24m1.11.12.05-.18h-.74l-.05.18h.28l-.29,1.05H24l.29-1.05Zm.73.52a.43.43,0,0,0,.23-.12.44.44,0,0,0,.14-.22.26.26,0,0,0,0-.27.5.5,0,0,0-.33-.09h-.22l-.34,1.23h.18l.14-.5h0l.21.5h.23l-.23-.53m-.08-.52h.07c.18,0,.24.05.2.18s-.14.2-.33.2h-.05Zm.87.42a.49.49,0,0,0,.07.48.46.46,0,0,0,.38.16.84.84,0,0,0,.51-.18.8.8,0,0,0,.31-.46.5.5,0,0,0-.05-.45.48.48,0,0,0-.4-.18.86.86,0,0,0-.51.18,1,1,0,0,0-.31.45m.19,0a.62.62,0,0,1,.22-.32.56.56,0,0,1,.35-.14.34.34,0,0,1,.29.14.39.39,0,0,1,0,.32.69.69,0,0,1-.22.33.57.57,0,0,1-.36.13.36.36,0,0,1-.28-.13.33.33,0,0,1,0-.33m1.63.63.24-.86.64.93.36-1.3H29l-.24.86-.64-.94-.37,1.31Zm1.83-1.23-.35,1.23h.18l.35-1.23Zm1.65.06a.49.49,0,0,0-.3-.09.8.8,0,0,0-.55.22.76.76,0,0,0-.27.41.55.55,0,0,0,.06.46.46.46,0,0,0,.39.18.83.83,0,0,0,.36-.09l.07-.22-.11.07-.09,0a.29.29,0,0,1-.17,0,.33.33,0,0,1-.28-.13.35.35,0,0,1,0-.32.57.57,0,0,1,.22-.33.56.56,0,0,1,.35-.14.37.37,0,0,1,.29.14l.06-.24m1.91.12,0-.18h-.74l0,.18h.28l-.29,1.05h.18L33,23.61Zm.23.42a.52.52,0,0,0,.07.48.48.48,0,0,0,.38.16.84.84,0,0,0,.51-.18.81.81,0,0,0,.32-.46.58.58,0,0,0-.06-.45.46.46,0,0,0-.39-.18.84.84,0,0,0-.51.18,1.07,1.07,0,0,0-.32.45m.19,0a.62.62,0,0,1,.22-.32.56.56,0,0,1,.36-.14.34.34,0,0,1,.29.14.39.39,0,0,1,0,.32.57.57,0,0,1-.22.33.55.55,0,0,1-.36.13.34.34,0,0,1-.27-.13.33.33,0,0,1-.05-.33m1.79-.6-.34,1.23h.54l.05-.17h-.36l.29-1.06Zm1,0-.34,1.23h.55l0-.17h-.35l.29-1.06Zm2.7.06a.55.55,0,0,0-.29-.09.85.85,0,0,0-.56.22.74.74,0,0,0-.26.41.55.55,0,0,0,.05.46.48.48,0,0,0,.4.18.87.87,0,0,0,.36-.09l0-.22-.1.07-.09,0a.34.34,0,0,1-.18,0,.31.31,0,0,1-.27-.13.33.33,0,0,1,0-.32.69.69,0,0,1,.22-.33.58.58,0,0,1,.36-.14.37.37,0,0,1,.29.14l.06-.24m.3.54a.46.46,0,0,0,.45.64.84.84,0,0,0,.51-.18A.8.8,0,0,0,40.8,24a.47.47,0,0,0-.06-.45.46.46,0,0,0-.39-.18.86.86,0,0,0-.51.18,1,1,0,0,0-.31.45m.19,0a.77.77,0,0,1,.22-.32.61.61,0,0,1,.36-.14.34.34,0,0,1,.29.14.36.36,0,0,1,0,.32.64.64,0,0,1-.23.33.59.59,0,0,1-.36.13.33.33,0,0,1-.32-.46m1.79-.6-.35,1.23h.54l0-.17h-.36l.29-1.06Zm1,0-.35,1.23h.54l.05-.17h-.36l.29-1.06Zm1.69,0h-.68l-.34,1.23h.68l0-.17h-.5l.11-.41H44l0-.17h-.48l.08-.29h.49Zm1.41.06a.52.52,0,0,0-.29-.09.85.85,0,0,0-.56.22.74.74,0,0,0-.26.41.52.52,0,0,0,.06.46.46.46,0,0,0,.39.18.87.87,0,0,0,.36-.09l.07-.22-.11.07-.09,0a.38.38,0,0,1-.17,0,.33.33,0,0,1-.28-.13.36.36,0,0,1,0-.32.69.69,0,0,1,.22-.33.61.61,0,0,1,.36-.14.37.37,0,0,1,.29.14l.05-.24m1.12.12,0-.18h-.74l-.05.18h.28L46,24.66h.18l.29-1.05Zm.5-.18-.35,1.23h.19l.34-1.23Zm.54.6a.52.52,0,0,0,.07.48.48.48,0,0,0,.38.16.84.84,0,0,0,.51-.18.81.81,0,0,0,.32-.46.58.58,0,0,0-.06-.45.46.46,0,0,0-.4-.18.83.83,0,0,0-.5.18.86.86,0,0,0-.32.45M48,24a.66.66,0,0,1,.58-.46.33.33,0,0,1,.32.46.55.55,0,0,1-.23.33.57.57,0,0,1-.36.13.37.37,0,0,1-.28-.13A.39.39,0,0,1,48,24m1.63.63.24-.86.64.93.37-1.3h-.18l-.25.86-.63-.94-.37,1.31Z"/><polyline class="cls-9" points="55.81 13.19 55.81 26.81 56.23 26.81 56.23 13.19"/></g></g></svg>