<svg xmlns="http://www.w3.org/2000/svg" width="60" height="73.169" viewBox="0 0 60 73.169"><defs><style>.a{fill:#fc321d;opacity:0.4;}.b{fill:#ee1c25;}.c{fill:#d31820;}.d{fill:#fff;}</style></defs><path class="a" d="M8.87,12.872A3.344,3.344,0,0,1,12.2,9.537H41.816v-6.2A3.344,3.344,0,0,0,38.481,0H3.335A3.3,3.3,0,0,0,0,3.335V48.218a3.344,3.344,0,0,0,3.335,3.335h5.6V12.872Z"/><g transform="translate(8.203 8.737)"><path class="b" d="M52.123,66.728H15.8a3.48,3.48,0,0,1-3.5-3.5V16.6a3.48,3.48,0,0,1,3.5-3.5H52.123a3.48,3.48,0,0,1,3.5,3.5V63.225A3.48,3.48,0,0,1,52.123,66.728ZM15.8,14.919a1.74,1.74,0,0,0-1.752,1.752V63.292A1.74,1.74,0,0,0,15.8,65.044H52.123a1.74,1.74,0,0,0,1.752-1.752V16.6a1.74,1.74,0,0,0-1.752-1.752H15.8Z" transform="translate(-12.3 -13.1)"/></g><g transform="translate(16.032 18.749)"><rect class="b" width="28.478" height="1.801"/></g><g transform="translate(16.032 25.066)"><rect class="b" width="28.478" height="1.801"/></g><g transform="translate(16.032 32.257)"><rect class="b" width="28.478" height="1.801"/></g><g transform="translate(15.949 40.457)"><path class="c" d="M23.7,62.1V60.367a.541.541,0,0,1,.534-.267H33.7c.4,0,.534.133.534.534v.934c0,.534-.067.6-.6.6H31.5c.133.333.267.6.4.867.067.133.133.2.267.2h1.6c.4,0,.534.133.534.534V64.7c0,.534-.067.6-.6.6H32.237A4.631,4.631,0,0,1,27.7,69.57l.2.2c1.534,1.4,3.068,2.868,4.6,4.268.2.133.333.333.2.534-.067.267-.333.267-.534.267H29.836a.856.856,0,0,1-.667-.267c-1.334-1.267-2.734-2.534-4.068-3.735-.467-.4-.867-.867-1.334-1.267V67.636A.549.549,0,0,1,24.3,67.3h2.734a2.274,2.274,0,0,0,1.867-.867,2.094,2.094,0,0,0,.4-1.067h-5a.541.541,0,0,1-.534-.267V63.568a.549.549,0,0,1,.534-.333h4.668a2.237,2.237,0,0,0-1.8-.867H24.3A.65.65,0,0,1,23.7,62.1Z" transform="translate(-23.7 -60.1)"/></g><g transform="translate(35.057 48.226)"><ellipse class="d" cx="11.738" cy="11.738" rx="11.738" ry="11.738" transform="translate(0.734 0.734)"/><path class="c" d="M64.371,96.443A12.471,12.471,0,1,1,76.843,83.971,12.5,12.5,0,0,1,64.371,96.443Zm0-23.476a11,11,0,1,0,11,11A11.015,11.015,0,0,0,64.371,72.967Z" transform="translate(-51.9 -71.5)"/></g><g transform="translate(42.66 56.896)"><path class="d" d="M64.4,88.668l3,3.068L73.8,85.6" transform="translate(-63.666 -84.866)"/><path class="c" d="M67.035,92.036a.757.757,0,0,1-.534-.2l-3-3a.755.755,0,0,1,1.067-1.067L67.1,90.3l5.869-5.6a.707.707,0,1,1,1,1l-6.4,6.136A.757.757,0,0,1,67.035,92.036Z" transform="translate(-63.3 -84.5)"/></g></svg>