<svg xmlns="http://www.w3.org/2000/svg" viewBox="0 0 136 40"><defs><style>.cls-1,.cls-4{fill:#003770;}.cls-2,.cls-5{fill:#e20613;}.cls-3{fill:#fff;}.cls-4,.cls-5{fill-rule:evenodd;}.cls-6{fill:none;}</style></defs><g id="Layer_2" data-name="Layer 2"><g id="Layer_1-2" data-name="Layer 1"><ellipse class="cls-1" cx="26.45" cy="20" rx="16.85" ry="14.49"/><polygon class="cls-2" points="24.4 10.16 28.31 8.87 28.33 30.03 24.39 31.36 24.4 10.16"/><path class="cls-3" d="M26.72,23.36c-1.7,2.05-3.34,4.15-6.42,4.15-4.35,0-6.42-4.21-6.42-7.73s1.62-7.38,5.85-7.38a6.68,6.68,0,0,1,4.67,2.32v2.87a9.34,9.34,0,0,0-4.14-1.2c-2.69-.05-5.06,1.12-5,3.77,0,1.83,1.84,3.07,3.64,3.07,2.76,0,4.43-2.52,5.83-4.43.39-.5,1.48-2,1.66-2.2,1.55-2.17,3.34-4.15,6.42-4.15,3.63,0,5.67,2.92,6.24,5.94H37.39a3.9,3.9,0,0,0-3.18-1.58c-2.85,0-4.55,2.62-6,4.56C28.23,21.37,27.12,22.88,26.72,23.36Zm12.4-1.9c-.37,3-2.07,6.09-5.78,6.09-2.16,0-3.85-1.48-5-3.29v-2.1a10.32,10.32,0,0,0,4.49,1.53c2,0,3.9-.75,4.67-2.23Z"/><polygon class="cls-1" points="46.16 31.27 46.77 31.27 46.77 28.22 49.73 31.27 50.56 31.27 47.35 28.04 50.3 25.16 49.52 25.16 46.77 27.9 46.77 25.16 46.16 25.16 46.16 31.27"/><path class="cls-4" d="M51.64,29c0-1,.51-1.86,1.48-1.86S54.6,28,54.6,29s-.52,1.86-1.48,1.86S51.64,30.07,51.64,29ZM51,29a2.1,2.1,0,1,0,4.17,0A2.1,2.1,0,1,0,51,29Z"/><path class="cls-1" d="M58.17,26.81h-1V25.54l-.55.19v1.08h-.88v.47h.88v2.61c0,.81,0,1.49,1,1.49a2.06,2.06,0,0,0,.67-.12l0-.46a1.24,1.24,0,0,1-.5.1c-.45,0-.6-.33-.6-.73V27.28h1Z"/><path class="cls-4" d="M61.67,29.29c0,.49,0,1.61-1.33,1.61-.5,0-.92-.21-.92-.8,0-1,1.13-1.08,2.09-1.08h.16Zm0,2h.54a6.86,6.86,0,0,1,0-.93v-2c0-1.17-.47-1.67-1.57-1.67a3.45,3.45,0,0,0-1.31.31v.53a2.38,2.38,0,0,1,1.31-.36c.75,0,1,.38,1,1.14v.23h-.11c-1.15,0-2.75.07-2.75,1.57,0,.4.2,1.26,1.47,1.26a1.57,1.57,0,0,0,1.42-.83h0Z"/><polygon class="cls-1" points="63.53 31.27 64.08 31.27 64.08 28.98 66.29 31.27 67.05 31.27 64.61 28.79 66.79 26.81 66.08 26.81 64.08 28.64 64.08 24.71 63.53 24.71 63.53 31.27"/><polygon class="cls-1" points="70.41 31.27 71.01 31.27 71.01 25.77 71.03 25.77 73.32 31.27 73.84 31.27 76.06 25.77 76.08 25.77 76.08 31.27 76.68 31.27 76.68 25.16 75.81 25.16 73.58 30.54 71.34 25.16 70.41 25.16 70.41 31.27"/><path class="cls-4" d="M80.64,29.29c0,.49,0,1.61-1.32,1.61-.51,0-.93-.21-.93-.8,0-1,1.14-1.08,2.09-1.08h.16Zm0,2h.54a6.86,6.86,0,0,1,0-.93v-2c0-1.17-.46-1.67-1.57-1.67a3.45,3.45,0,0,0-1.31.31v.53a2.38,2.38,0,0,1,1.31-.36c.75,0,1,.38,1,1.14v.23h-.11c-1.15,0-2.74.07-2.74,1.57,0,.4.2,1.26,1.47,1.26a1.58,1.58,0,0,0,1.42-.83h0Z"/><path class="cls-1" d="M82.51,31.27h.55V28.88c0-.78.34-1.7,1.32-1.7s1.06.66,1.06,1.43v2.66H86V28.6c0-1.1-.32-1.9-1.52-1.9a1.53,1.53,0,0,0-1.4.86h0V24.71h-.55Z"/><path class="cls-4" d="M87.93,24.88h-.56v.74h.56Zm-.56,6.39h.56V26.81h-.56Z"/><path class="cls-1" d="M89.32,31.27h.55V28.8c0-.74.31-1.62,1.32-1.62.76,0,1.06.54,1.06,1.38v2.71h.55V28.42c0-1-.42-1.72-1.52-1.72a1.43,1.43,0,0,0-1.45.9h0v-.79h-.53a9.39,9.39,0,0,1,0,1.05Z"/><path class="cls-4" d="M94.52,29c0-.87.28-1.86,1.33-1.86s1.32,1.05,1.32,1.86-.34,1.86-1.32,1.86S94.52,29.91,94.52,29Zm3.2-4.33h-.55v2.85h0a1.51,1.51,0,0,0-1.39-.86c-1.31,0-1.84,1-1.84,2.34s.61,2.34,1.84,2.34a1.43,1.43,0,0,0,1.39-.82h0v.71h.55Z"/><path class="cls-1" d="M99.05,31.27h.55v-2.2c0-.81.24-1.79,1.11-1.79a1.77,1.77,0,0,1,.41,0v-.57a1.52,1.52,0,0,0-.39-.06,1.34,1.34,0,0,0-1.15,1h0v-.86H99a9.36,9.36,0,0,1,0,1Z"/><path class="cls-4" d="M104.48,29.29c0,.49,0,1.61-1.33,1.61-.5,0-.92-.21-.92-.8,0-1,1.13-1.08,2.09-1.08h.16Zm0,2h.54a6.86,6.86,0,0,1,0-.93v-2c0-1.17-.47-1.67-1.57-1.67a3.45,3.45,0,0,0-1.31.31v.53a2.38,2.38,0,0,1,1.31-.36c.74,0,1,.38,1,1.14v.23h-.11c-1.15,0-2.75.07-2.75,1.57,0,.4.2,1.26,1.47,1.26a1.57,1.57,0,0,0,1.42-.83h0Z"/><path class="cls-4" d="M109.41,25.69h.83c.51,0,1.33.12,1.33,1s-.85,1.14-1.49,1.14h-.67Zm0,2.67h.53c.89,0,1.83.11,1.83,1.2s-.92,1.19-1.73,1.19h-.63Zm-.61,2.91H110c1.27,0,2.36-.41,2.36-1.74a1.44,1.44,0,0,0-1.3-1.45v0a1.26,1.26,0,0,0,1.11-1.39c0-1.17-.94-1.51-1.93-1.51h-1.46Z"/><path class="cls-4" d="M116.15,29.29c0,.49,0,1.61-1.32,1.61-.5,0-.92-.21-.92-.8,0-1,1.13-1.08,2.09-1.08h.15Zm.06,2h.54a6.86,6.86,0,0,1,0-.93v-2c0-1.17-.47-1.67-1.57-1.67a3.45,3.45,0,0,0-1.31.31v.53a2.38,2.38,0,0,1,1.31-.36c.74,0,1,.38,1,1.14v.23h-.1c-1.16,0-2.75.07-2.75,1.57,0,.4.2,1.26,1.47,1.26a1.58,1.58,0,0,0,1.42-.83h0Z"/><path class="cls-1" d="M118,31.27h.55V28.8c0-.74.32-1.62,1.32-1.62.77,0,1.06.54,1.06,1.38v2.71h.55V28.42c0-1-.42-1.72-1.52-1.72a1.41,1.41,0,0,0-1.44.9h0v-.79H118c0,.36,0,.71,0,1.05Z"/><polygon class="cls-1" points="122.89 31.27 123.44 31.27 123.44 28.98 125.64 31.27 126.41 31.27 123.97 28.79 126.14 26.81 125.44 26.81 123.44 28.64 123.44 24.71 122.89 24.71 122.89 31.27"/><path class="cls-5" d="M61.43,20.09c-1.59,0-2.25-1.32-2.25-2.8s.66-2.82,2.25-2.82,2.24,1.32,2.24,2.82S63,20.09,61.43,20.09Zm0,2.42c3.3,0,5.81-1.92,5.81-5.22s-2.51-5.24-5.81-5.24S55.62,14,55.62,17.29,58.13,22.51,61.43,22.51Z"/><path class="cls-2" d="M66.92,14.7h2v4.07c0,2.37.75,3.74,3.84,3.74a15.78,15.78,0,0,0,2.16-.2l-.11-2.24a6.39,6.39,0,0,1-1.06.13c-1.09,0-1.38-.61-1.38-1.82V14.7h2.42V12.28H72.35V8.83L69,10v2.24h-2Z"/><polygon class="cls-2" points="86.85 22.27 90.3 22.27 90.3 17.33 90.34 17.33 93.1 22.27 97.28 22.27 93.52 16.87 97 12.28 93.22 12.28 90.34 16.48 90.3 16.48 90.3 8.84 86.85 10.04 86.85 22.27"/><polygon class="cls-2" points="46.42 22.27 49.88 22.27 49.88 17.33 49.92 17.33 52.68 22.27 56.86 22.27 53.1 16.87 56.57 12.28 52.79 12.28 49.92 16.48 49.88 16.48 49.88 8.84 46.42 9.98 46.42 22.27"/><path class="cls-5" d="M78.58,19.12c0-1,.93-1.34,2.11-1.34.53,0,1,0,1.48.06A2.29,2.29,0,0,1,80,20.23C79.2,20.23,78.58,19.82,78.58,19.12Zm7,3.2a12.77,12.77,0,0,1-.19-2.39V16.17c0-3.09-2.23-4.19-4.81-4.19a10.53,10.53,0,0,0-4,.71l.06,2.37a6.59,6.59,0,0,1,3.22-.75c1.26,0,2.29.36,2.31,1.74a11.34,11.34,0,0,0-1.63-.13c-1.87,0-5.22.37-5.22,3.45,0,2.2,1.78,3.19,3.78,3.19a3.46,3.46,0,0,0,3.2-1.83h0c0,.52.06,1.05.08,1.59Z"/><rect class="cls-6" width="136" height="40"/><rect class="cls-6" width="136" height="40"/></g></g></svg>