<svg xmlns="http://www.w3.org/2000/svg" xmlns:xlink="http://www.w3.org/1999/xlink" width="54.587" height="62.043" viewBox="0 0 54.587 62.043"><defs><style>.a{opacity:0.4;fill:url(#a);}.b{fill:#d31820;}.c{fill:#ee1c25;}.d{fill:#fff;stroke:#c2302c;stroke-width:2px;}</style><linearGradient id="a" x1="14.981" y1="28.228" x2="19.5" y2="28.228" gradientUnits="objectBoundingBox"><stop offset="0" stop-color="#fc321d"/><stop offset="0.445" stop-color="#63a9ff"/><stop offset="0.966" stop-color="#638eff"/><stop offset="1" stop-color="#638eff"/></linearGradient></defs><g transform="translate(59.61 -15.835) rotate(90)"><path class="a" d="M94.5,68.513h6.738a3.649,3.649,0,0,0,3.622-3.622V34.822a3.649,3.649,0,0,0-3.622-3.622H94.5Z" transform="translate(-27.402 -9.744)"/><path class="a" d="M40.354,31.1H38.922A3.649,3.649,0,0,0,35.3,34.722V65.128a3.649,3.649,0,0,0,3.622,3.622h1.432Z" transform="translate(-17.807 -9.729)"/><g transform="translate(15.835 20.277)"><path class="b" d="M90.677,69.05H38.146A4.528,4.528,0,0,1,33.6,64.5V34.348A4.528,4.528,0,0,1,38.146,29.8H91.1a4.528,4.528,0,0,1,4.546,4.548V64.5A4.967,4.967,0,0,1,90.677,69.05ZM38.146,31.485a2.8,2.8,0,0,0-2.778,2.78V64.5a2.8,2.8,0,0,0,2.778,2.78H90.677a3.207,3.207,0,0,0,3.2-2.864V34.348A2.8,2.8,0,0,0,91.1,31.569H38.146Z" transform="translate(-33.6 -29.8)"/></g><g transform="translate(21.479 20.528)"><path class="b" d="M85.951,69.182H41.142a.864.864,0,0,1-.842-.842v-37.4a.844.844,0,0,1,.842-.842H85.951a.844.844,0,0,1,.842.842v37.4A.844.844,0,0,1,85.951,69.182ZM41.985,67.5H85.109V31.785H41.985Z" transform="translate(-40.3 -30.1)"/></g><g transform="translate(71.478 33.353)"><path class="c" d="M100.542,58.355a.844.844,0,0,1-.842-.842V46.142a.844.844,0,0,1,.842-.842.906.906,0,0,1,.842.842V57.513A.844.844,0,0,1,100.542,58.355Z" transform="translate(-99.7 -45.3)"/></g><g transform="translate(27.236 38.378) rotate(-90)"><path class="d" d="M5.914,27.421V23.473H1.984A1.982,1.982,0,0,1,0,21.489V1.986A1.984,1.984,0,0,1,1.984,0H30.369a1.985,1.985,0,0,1,1.986,1.986v19.5a1.983,1.983,0,0,1-1.979,1.984H11.7l-2.132,1.9L6.831,27.83a.551.551,0,0,1-.917-.41Z" transform="translate(0)"/><g transform="translate(7.369 9.535)"><circle class="c" cx="2.196" cy="2.196" r="2.196"/><circle class="c" cx="2.196" cy="2.196" r="2.196" transform="translate(6.616)"/><circle class="c" cx="2.196" cy="2.196" r="2.196" transform="translate(13.232)"/></g></g></g></svg>